G04 #@! TF.GenerationSoftware,KiCad,Pcbnew,(6.0.9)*
G04 #@! TF.CreationDate,2022-11-29T22:23:48+01:00*
G04 #@! TF.ProjectId,power_module,706f7765-725f-46d6-9f64-756c652e6b69,rev?*
G04 #@! TF.SameCoordinates,Original*
G04 #@! TF.FileFunction,Soldermask,Top*
G04 #@! TF.FilePolarity,Negative*
%FSLAX46Y46*%
G04 Gerber Fmt 4.6, Leading zero omitted, Abs format (unit mm)*
G04 Created by KiCad (PCBNEW (6.0.9)) date 2022-11-29 22:23:48*
%MOMM*%
%LPD*%
G01*
G04 APERTURE LIST*
G04 Aperture macros list*
%AMRoundRect*
0 Rectangle with rounded corners*
0 $1 Rounding radius*
0 $2 $3 $4 $5 $6 $7 $8 $9 X,Y pos of 4 corners*
0 Add a 4 corners polygon primitive as box body*
4,1,4,$2,$3,$4,$5,$6,$7,$8,$9,$2,$3,0*
0 Add four circle primitives for the rounded corners*
1,1,$1+$1,$2,$3*
1,1,$1+$1,$4,$5*
1,1,$1+$1,$6,$7*
1,1,$1+$1,$8,$9*
0 Add four rect primitives between the rounded corners*
20,1,$1+$1,$2,$3,$4,$5,0*
20,1,$1+$1,$4,$5,$6,$7,0*
20,1,$1+$1,$6,$7,$8,$9,0*
20,1,$1+$1,$8,$9,$2,$3,0*%
%AMFreePoly0*
4,1,9,3.862500,-0.866500,0.737500,-0.866500,0.737500,-0.450000,-0.737500,-0.450000,-0.737500,0.450000,0.737500,0.450000,0.737500,0.866500,3.862500,0.866500,3.862500,-0.866500,3.862500,-0.866500,$1*%
G04 Aperture macros list end*
%ADD10RoundRect,0.250000X-0.400000X-0.625000X0.400000X-0.625000X0.400000X0.625000X-0.400000X0.625000X0*%
%ADD11RoundRect,0.150000X-0.825000X-0.150000X0.825000X-0.150000X0.825000X0.150000X-0.825000X0.150000X0*%
%ADD12RoundRect,0.150000X-0.587500X-0.150000X0.587500X-0.150000X0.587500X0.150000X-0.587500X0.150000X0*%
%ADD13RoundRect,0.250000X-0.412500X-0.650000X0.412500X-0.650000X0.412500X0.650000X-0.412500X0.650000X0*%
%ADD14R,2.400000X2.400000*%
%ADD15C,2.400000*%
%ADD16RoundRect,0.250000X0.625000X-0.400000X0.625000X0.400000X-0.625000X0.400000X-0.625000X-0.400000X0*%
%ADD17R,1.905000X2.000000*%
%ADD18O,1.905000X2.000000*%
%ADD19C,3.000000*%
%ADD20R,1.700000X1.700000*%
%ADD21O,1.700000X1.700000*%
%ADD22R,0.900000X1.300000*%
%ADD23FreePoly0,270.000000*%
%ADD24RoundRect,0.250000X1.550000X-0.750000X1.550000X0.750000X-1.550000X0.750000X-1.550000X-0.750000X0*%
%ADD25O,3.600000X2.000000*%
%ADD26R,2.300000X1.500000*%
%ADD27O,2.300000X1.500000*%
%ADD28C,1.600000*%
%ADD29O,1.600000X1.600000*%
%ADD30RoundRect,0.250000X0.475000X-0.250000X0.475000X0.250000X-0.475000X0.250000X-0.475000X-0.250000X0*%
%ADD31R,1.800000X1.800000*%
%ADD32C,1.800000*%
%ADD33RoundRect,0.250000X0.250000X0.475000X-0.250000X0.475000X-0.250000X-0.475000X0.250000X-0.475000X0*%
%ADD34RoundRect,0.249999X-1.550001X0.790001X-1.550001X-0.790001X1.550001X-0.790001X1.550001X0.790001X0*%
%ADD35O,3.600000X2.080000*%
%ADD36C,1.700000*%
%ADD37C,5.000000*%
%ADD38O,2.400000X2.400000*%
%ADD39C,3.650000*%
%ADD40R,1.500000X1.500000*%
%ADD41C,1.500000*%
%ADD42RoundRect,0.250000X-0.475000X0.250000X-0.475000X-0.250000X0.475000X-0.250000X0.475000X0.250000X0*%
%ADD43R,1.600000X1.600000*%
G04 APERTURE END LIST*
D10*
X87450000Y-132125000D03*
X90550000Y-132125000D03*
D11*
X86925000Y-97095000D03*
X86925000Y-98365000D03*
X86925000Y-99635000D03*
X86925000Y-100905000D03*
X91875000Y-100905000D03*
X91875000Y-99635000D03*
X91875000Y-98365000D03*
X91875000Y-97095000D03*
D12*
X94512500Y-112550000D03*
X94512500Y-114450000D03*
X96387500Y-113500000D03*
D13*
X87437500Y-119737500D03*
X90562500Y-119737500D03*
D14*
X104000000Y-37323959D03*
D15*
X104000000Y-32323959D03*
D14*
X72000000Y-37323959D03*
D15*
X72000000Y-32323959D03*
D16*
X96000000Y-100750000D03*
X96000000Y-97650000D03*
D17*
X138960000Y-94445000D03*
D18*
X141500000Y-94445000D03*
X144040000Y-94445000D03*
D17*
X144000000Y-69500000D03*
D18*
X141460000Y-69500000D03*
X138920000Y-69500000D03*
D15*
X113200000Y-69950000D03*
X113200000Y-92450000D03*
D19*
X153750000Y-112500000D03*
D14*
X56000000Y-37323959D03*
D15*
X56000000Y-32323959D03*
D14*
X72000000Y-48823959D03*
D15*
X72000000Y-53823959D03*
D20*
X98050000Y-135125000D03*
D21*
X95510000Y-135125000D03*
D19*
X45100000Y-76500000D03*
D14*
X40000000Y-48823959D03*
D15*
X40000000Y-53823959D03*
D10*
X83200000Y-109200000D03*
X86300000Y-109200000D03*
D22*
X47000000Y-83912500D03*
D23*
X45500000Y-84000000D03*
D22*
X44000000Y-83912500D03*
D24*
X169222500Y-86500000D03*
D25*
X169222500Y-81500000D03*
X169222500Y-76500000D03*
X169222500Y-71500000D03*
D19*
X129250000Y-121250000D03*
D26*
X34207500Y-83502500D03*
D27*
X34207500Y-86042500D03*
X34207500Y-88582500D03*
D28*
X136920000Y-47000000D03*
D29*
X147080000Y-47000000D03*
D19*
X138000000Y-104700000D03*
D30*
X83800000Y-97350000D03*
X83800000Y-95450000D03*
D14*
X40000000Y-37323959D03*
D15*
X40000000Y-32323959D03*
D19*
X54500000Y-85250000D03*
D16*
X87500000Y-116750000D03*
X87500000Y-113650000D03*
D28*
X136420000Y-82055000D03*
D29*
X146580000Y-82055000D03*
D31*
X91475000Y-104800000D03*
D32*
X88935000Y-104800000D03*
D13*
X34937500Y-78000000D03*
X38062500Y-78000000D03*
D33*
X46700000Y-89750000D03*
X44800000Y-89750000D03*
D10*
X87450000Y-122737500D03*
X90550000Y-122737500D03*
D14*
X88000000Y-48823959D03*
D15*
X88000000Y-53823959D03*
D34*
X32777500Y-65460000D03*
D35*
X32777500Y-70540000D03*
D13*
X87425000Y-135125000D03*
X90550000Y-135125000D03*
D36*
X80700000Y-136860000D03*
X80700000Y-134320000D03*
X80700000Y-131780000D03*
X80700000Y-129240000D03*
X80700000Y-126700000D03*
X80700000Y-124160000D03*
X80700000Y-121620000D03*
X80700000Y-119080000D03*
X80700000Y-116540000D03*
X80700000Y-114000000D03*
X80700000Y-111460000D03*
X80700000Y-108920000D03*
X80700000Y-106380000D03*
X80700000Y-103840000D03*
X80700000Y-101300000D03*
X80700000Y-98760000D03*
X80700000Y-96220000D03*
X80700000Y-93680000D03*
X80700000Y-91140000D03*
X55300000Y-136860000D03*
X55300000Y-134320000D03*
X55300000Y-131780000D03*
X55300000Y-129240000D03*
X55300000Y-126700000D03*
X55300000Y-124160000D03*
X55300000Y-121620000D03*
X55300000Y-119080000D03*
X55300000Y-116540000D03*
X55300000Y-114000000D03*
X55300000Y-111460000D03*
X55300000Y-108920000D03*
X55300000Y-106380000D03*
X55300000Y-103840000D03*
X55300000Y-101300000D03*
X55300000Y-98760000D03*
X55300000Y-96220000D03*
X55300000Y-93680000D03*
X55300000Y-91140000D03*
D37*
X128800000Y-74055000D03*
X154200000Y-74055000D03*
D15*
X114060000Y-37000000D03*
D38*
X169940000Y-37000000D03*
D14*
X104000000Y-48823959D03*
D15*
X104000000Y-53823959D03*
D39*
X169600000Y-101820000D03*
X169600000Y-113250000D03*
D40*
X163250000Y-111980000D03*
D41*
X160710000Y-110710000D03*
X163250000Y-109440000D03*
X160710000Y-108170000D03*
X163250000Y-106900000D03*
X160710000Y-105630000D03*
X163250000Y-104360000D03*
X160710000Y-103090000D03*
D19*
X154000000Y-129750000D03*
D10*
X83200000Y-105800000D03*
X86300000Y-105800000D03*
D13*
X87437500Y-128750000D03*
X90562500Y-128750000D03*
D15*
X114060000Y-56000000D03*
D38*
X169940000Y-56000000D03*
D14*
X56000000Y-48823959D03*
D15*
X56000000Y-53823959D03*
X49060000Y-68000000D03*
D38*
X104940000Y-68000000D03*
D31*
X91475000Y-109600000D03*
D32*
X88935000Y-109600000D03*
D37*
X154200000Y-90055000D03*
X128800000Y-90055000D03*
D20*
X45475000Y-136725000D03*
D21*
X45475000Y-134185000D03*
X45475000Y-131645000D03*
D42*
X83750000Y-91050000D03*
X83750000Y-92950000D03*
D39*
X169600000Y-119590000D03*
X169600000Y-131020000D03*
D40*
X163250000Y-129750000D03*
D41*
X160710000Y-128480000D03*
X163250000Y-127210000D03*
X160710000Y-125940000D03*
X163250000Y-124670000D03*
X160710000Y-123400000D03*
X163250000Y-122130000D03*
X160710000Y-120860000D03*
D16*
X90500000Y-116750000D03*
X90500000Y-113650000D03*
D14*
X88000000Y-37323959D03*
D15*
X88000000Y-32323959D03*
D20*
X45525000Y-93800000D03*
D21*
X45525000Y-96340000D03*
X45525000Y-98880000D03*
X45525000Y-101420000D03*
X45525000Y-103960000D03*
X45525000Y-106500000D03*
X45525000Y-109040000D03*
X45525000Y-111580000D03*
X45525000Y-114120000D03*
X45525000Y-116660000D03*
X45525000Y-119200000D03*
X45525000Y-121740000D03*
X45525000Y-124280000D03*
X45525000Y-126820000D03*
D43*
X42000000Y-67444888D03*
D28*
X42000000Y-69444888D03*
D42*
X101300000Y-133250000D03*
X101300000Y-135150000D03*
D43*
X32000000Y-95544888D03*
D28*
X32000000Y-97544888D03*
D10*
X87450000Y-125750000D03*
X90550000Y-125750000D03*
M02*
