M48
; DRILL file {KiCad (6.0.9)} date Tue Nov 29 22:26:50 2022
; FORMAT={-:-/ absolute / metric / decimal}
; #@! TF.CreationDate,2022-11-29T22:26:50+01:00
; #@! TF.GenerationSoftware,Kicad,Pcbnew,(6.0.9)
; #@! TF.FileFunction,Plated,1,2,PTH
FMAT,2
METRIC
; #@! TA.AperFunction,Plated,PTH,ComponentDrill
T1C0.800
; #@! TA.AperFunction,Plated,PTH,ComponentDrill
T2C0.900
; #@! TA.AperFunction,Plated,PTH,ComponentDrill
T3C1.000
; #@! TA.AperFunction,Plated,PTH,ComponentDrill
T4C1.100
; #@! TA.AperFunction,Plated,PTH,ViaDrill
T5C1.200
; #@! TA.AperFunction,Plated,PTH,ComponentDrill
T6C1.200
; #@! TA.AperFunction,Plated,PTH,ViaDrill
T7C1.400
; #@! TA.AperFunction,Plated,PTH,ComponentDrill
T8C1.400
; #@! TA.AperFunction,Plated,PTH,ComponentDrill
T9C1.500
; #@! TA.AperFunction,Plated,PTH,ComponentDrill
T10C2.500
; #@! TA.AperFunction,Plated,PTH,ViaDrill
T11C3.200
%
G90
G05
T1
X32.0Y-95.545
X32.0Y-97.545
X42.0Y-67.445
X42.0Y-69.445
X136.42Y-82.055
X136.92Y-47.0
X146.58Y-82.055
X147.08Y-47.0
T2
X88.935Y-104.8
X88.935Y-109.6
X91.475Y-104.8
X91.475Y-109.6
X160.71Y-103.09
X160.71Y-105.63
X160.71Y-108.17
X160.71Y-110.71
X160.71Y-120.86
X160.71Y-123.4
X160.71Y-125.94
X160.71Y-128.48
X163.25Y-104.36
X163.25Y-106.9
X163.25Y-109.44
X163.25Y-111.98
X163.25Y-122.13
X163.25Y-124.67
X163.25Y-127.21
X163.25Y-129.75
T3
X34.207Y-83.502
X34.207Y-86.042
X34.207Y-88.582
X45.475Y-131.645
X45.475Y-134.185
X45.475Y-136.725
X45.525Y-93.8
X45.525Y-96.34
X45.525Y-98.88
X45.525Y-101.42
X45.525Y-103.96
X45.525Y-106.5
X45.525Y-109.04
X45.525Y-111.58
X45.525Y-114.12
X45.525Y-116.66
X45.525Y-119.2
X45.525Y-121.74
X45.525Y-124.28
X45.525Y-126.82
X55.3Y-91.14
X55.3Y-93.68
X55.3Y-96.22
X55.3Y-98.76
X55.3Y-101.3
X55.3Y-103.84
X55.3Y-106.38
X55.3Y-108.92
X55.3Y-111.46
X55.3Y-114.0
X55.3Y-116.54
X55.3Y-119.08
X55.3Y-121.62
X55.3Y-124.16
X55.3Y-126.7
X55.3Y-129.24
X55.3Y-131.78
X55.3Y-134.32
X55.3Y-136.86
X80.7Y-91.14
X80.7Y-93.68
X80.7Y-96.22
X80.7Y-98.76
X80.7Y-101.3
X80.7Y-103.84
X80.7Y-106.38
X80.7Y-108.92
X80.7Y-111.46
X80.7Y-114.0
X80.7Y-116.54
X80.7Y-119.08
X80.7Y-121.62
X80.7Y-124.16
X80.7Y-126.7
X80.7Y-129.24
X80.7Y-131.78
X80.7Y-134.32
X80.7Y-136.86
X95.51Y-135.125
X98.05Y-135.125
T4
X138.92Y-69.5
X138.96Y-94.445
X141.46Y-69.5
X141.5Y-94.445
X144.0Y-69.5
X144.04Y-94.445
T5
X82.25Y-88.0
T6
X40.0Y-32.324
X40.0Y-37.324
X40.0Y-48.824
X40.0Y-53.824
X49.06Y-68.0
X56.0Y-32.324
X56.0Y-37.324
X56.0Y-48.824
X56.0Y-53.824
X72.0Y-32.324
X72.0Y-37.324
X72.0Y-48.824
X72.0Y-53.824
X88.0Y-32.324
X88.0Y-37.324
X88.0Y-48.824
X88.0Y-53.824
X104.0Y-32.324
X104.0Y-37.324
X104.0Y-48.824
X104.0Y-53.824
X104.94Y-68.0
X113.2Y-69.95
X113.2Y-92.45
X114.06Y-37.0
X114.06Y-56.0
X169.94Y-37.0
X169.94Y-56.0
T7
X28.0Y-45.0
X30.25Y-36.0
X30.25Y-55.25
X37.5Y-99.5
X40.0Y-90.75
X54.5Y-63.9
X62.1Y-68.6
X64.0Y-78.0
X64.2Y-88.6
X66.25Y-128.5
X70.2Y-73.1
X70.75Y-132.75
X76.6Y-84.8
X78.0Y-77.5
X87.55Y-83.75
X89.5Y-91.75
X93.5Y-118.9
X93.7Y-131.3
X98.2Y-107.8
X100.5Y-103.75
X101.23Y-111.98
X104.0Y-91.0
X104.3Y-129.5
X105.8Y-120.8
X112.4Y-120.7
X122.25Y-135.5
X125.0Y-107.4
X129.5Y-132.25
X130.2Y-45.2
X130.25Y-35.75
X132.0Y-110.4
X147.0Y-60.2
X151.0Y-60.2
X164.75Y-100.25
T8
X32.777Y-65.46
X32.777Y-70.54
X169.222Y-71.5
X169.222Y-76.5
X169.222Y-81.5
X169.222Y-86.5
T9
X45.1Y-76.5
X54.5Y-85.25
X129.25Y-121.25
X138.0Y-104.7
X153.75Y-112.5
X154.0Y-129.75
T10
X128.8Y-74.055
X128.8Y-90.055
X154.2Y-74.055
X154.2Y-90.055
T11
X28.0Y-27.5
X28.0Y-138.5
X95.5Y-91.0
X175.0Y-27.5
X175.0Y-138.5
T0
M30
