G04 #@! TF.GenerationSoftware,KiCad,Pcbnew,(6.0.9)*
G04 #@! TF.CreationDate,2022-11-30T14:59:24+01:00*
G04 #@! TF.ProjectId,Sensor,53656e73-6f72-42e6-9b69-6361645f7063,rev?*
G04 #@! TF.SameCoordinates,Original*
G04 #@! TF.FileFunction,Soldermask,Top*
G04 #@! TF.FilePolarity,Negative*
%FSLAX46Y46*%
G04 Gerber Fmt 4.6, Leading zero omitted, Abs format (unit mm)*
G04 Created by KiCad (PCBNEW (6.0.9)) date 2022-11-30 14:59:24*
%MOMM*%
%LPD*%
G01*
G04 APERTURE LIST*
G04 Aperture macros list*
%AMRoundRect*
0 Rectangle with rounded corners*
0 $1 Rounding radius*
0 $2 $3 $4 $5 $6 $7 $8 $9 X,Y pos of 4 corners*
0 Add a 4 corners polygon primitive as box body*
4,1,4,$2,$3,$4,$5,$6,$7,$8,$9,$2,$3,0*
0 Add four circle primitives for the rounded corners*
1,1,$1+$1,$2,$3*
1,1,$1+$1,$4,$5*
1,1,$1+$1,$6,$7*
1,1,$1+$1,$8,$9*
0 Add four rect primitives between the rounded corners*
20,1,$1+$1,$2,$3,$4,$5,0*
20,1,$1+$1,$4,$5,$6,$7,0*
20,1,$1+$1,$6,$7,$8,$9,0*
20,1,$1+$1,$8,$9,$2,$3,0*%
G04 Aperture macros list end*
%ADD10R,1.800000X1.800000*%
%ADD11C,1.800000*%
%ADD12RoundRect,0.150000X-0.825000X-0.150000X0.825000X-0.150000X0.825000X0.150000X-0.825000X0.150000X0*%
%ADD13O,1.700000X1.700000*%
%ADD14R,1.700000X1.700000*%
%ADD15RoundRect,0.250000X-0.625000X0.400000X-0.625000X-0.400000X0.625000X-0.400000X0.625000X0.400000X0*%
%ADD16RoundRect,0.250000X0.625000X-0.400000X0.625000X0.400000X-0.625000X0.400000X-0.625000X-0.400000X0*%
%ADD17RoundRect,0.250000X0.400000X0.625000X-0.400000X0.625000X-0.400000X-0.625000X0.400000X-0.625000X0*%
%ADD18RoundRect,0.250000X-0.337500X-0.475000X0.337500X-0.475000X0.337500X0.475000X-0.337500X0.475000X0*%
%ADD19RoundRect,0.250000X-0.475000X0.337500X-0.475000X-0.337500X0.475000X-0.337500X0.475000X0.337500X0*%
%ADD20RoundRect,0.250000X-0.400000X-0.625000X0.400000X-0.625000X0.400000X0.625000X-0.400000X0.625000X0*%
%ADD21RoundRect,0.250000X-0.412500X-1.100000X0.412500X-1.100000X0.412500X1.100000X-0.412500X1.100000X0*%
%ADD22RoundRect,0.250000X1.100000X-0.412500X1.100000X0.412500X-1.100000X0.412500X-1.100000X-0.412500X0*%
G04 APERTURE END LIST*
D10*
X114000000Y-90425000D03*
D11*
X114000000Y-92965000D03*
D12*
X119025000Y-92095000D03*
X119025000Y-93365000D03*
X119025000Y-94635000D03*
X119025000Y-95905000D03*
X123975000Y-95905000D03*
X123975000Y-94635000D03*
X123975000Y-93365000D03*
X123975000Y-92095000D03*
X137000000Y-92130000D03*
X137000000Y-93400000D03*
X137000000Y-94670000D03*
X137000000Y-95940000D03*
X141950000Y-95940000D03*
X141950000Y-94670000D03*
X141950000Y-93400000D03*
X141950000Y-92130000D03*
D13*
X116375000Y-86450000D03*
D14*
X154546472Y-89660000D03*
D13*
X154546472Y-92200000D03*
D14*
X145187500Y-83535000D03*
D13*
X142647500Y-83535000D03*
D15*
X134900000Y-83950000D03*
X134900000Y-87050000D03*
D16*
X149475000Y-89585000D03*
X149475000Y-86485000D03*
X129500000Y-99550000D03*
X129500000Y-96450000D03*
X145475000Y-99085000D03*
X145475000Y-95985000D03*
D17*
X122550000Y-87500000D03*
X119450000Y-87500000D03*
D15*
X149475000Y-92985000D03*
X149475000Y-96085000D03*
D18*
X139937500Y-100035000D03*
X142012500Y-100035000D03*
D16*
X131400000Y-87150000D03*
X131400000Y-84050000D03*
D19*
X126500000Y-97962500D03*
X126500000Y-100037500D03*
D20*
X119450000Y-99000000D03*
X122550000Y-99000000D03*
D21*
X141412500Y-88535000D03*
X144537500Y-88535000D03*
X128237500Y-91400000D03*
X131362500Y-91400000D03*
D22*
X126000000Y-87562500D03*
X126000000Y-84437500D03*
D21*
X119437500Y-84000000D03*
X122562500Y-84000000D03*
M02*
