G04 #@! TF.GenerationSoftware,KiCad,Pcbnew,(6.0.9)*
G04 #@! TF.CreationDate,2022-11-30T14:59:24+01:00*
G04 #@! TF.ProjectId,Sensor,53656e73-6f72-42e6-9b69-6361645f7063,rev?*
G04 #@! TF.SameCoordinates,Original*
G04 #@! TF.FileFunction,Legend,Top*
G04 #@! TF.FilePolarity,Positive*
%FSLAX46Y46*%
G04 Gerber Fmt 4.6, Leading zero omitted, Abs format (unit mm)*
G04 Created by KiCad (PCBNEW (6.0.9)) date 2022-11-30 14:59:24*
%MOMM*%
%LPD*%
G01*
G04 APERTURE LIST*
G04 Aperture macros list*
%AMRoundRect*
0 Rectangle with rounded corners*
0 $1 Rounding radius*
0 $2 $3 $4 $5 $6 $7 $8 $9 X,Y pos of 4 corners*
0 Add a 4 corners polygon primitive as box body*
4,1,4,$2,$3,$4,$5,$6,$7,$8,$9,$2,$3,0*
0 Add four circle primitives for the rounded corners*
1,1,$1+$1,$2,$3*
1,1,$1+$1,$4,$5*
1,1,$1+$1,$6,$7*
1,1,$1+$1,$8,$9*
0 Add four rect primitives between the rounded corners*
20,1,$1+$1,$2,$3,$4,$5,0*
20,1,$1+$1,$4,$5,$6,$7,0*
20,1,$1+$1,$6,$7,$8,$9,0*
20,1,$1+$1,$8,$9,$2,$3,0*%
G04 Aperture macros list end*
%ADD10C,0.125000*%
%ADD11C,0.150000*%
%ADD12C,0.300000*%
%ADD13C,0.250000*%
%ADD14C,0.120000*%
%ADD15R,1.800000X1.800000*%
%ADD16C,1.800000*%
%ADD17RoundRect,0.150000X-0.825000X-0.150000X0.825000X-0.150000X0.825000X0.150000X-0.825000X0.150000X0*%
%ADD18O,1.700000X1.700000*%
%ADD19R,1.700000X1.700000*%
%ADD20RoundRect,0.250000X-0.625000X0.400000X-0.625000X-0.400000X0.625000X-0.400000X0.625000X0.400000X0*%
%ADD21RoundRect,0.250000X0.625000X-0.400000X0.625000X0.400000X-0.625000X0.400000X-0.625000X-0.400000X0*%
%ADD22RoundRect,0.250000X0.400000X0.625000X-0.400000X0.625000X-0.400000X-0.625000X0.400000X-0.625000X0*%
%ADD23RoundRect,0.250000X-0.337500X-0.475000X0.337500X-0.475000X0.337500X0.475000X-0.337500X0.475000X0*%
%ADD24RoundRect,0.250000X-0.475000X0.337500X-0.475000X-0.337500X0.475000X-0.337500X0.475000X0.337500X0*%
%ADD25RoundRect,0.250000X-0.400000X-0.625000X0.400000X-0.625000X0.400000X0.625000X-0.400000X0.625000X0*%
%ADD26RoundRect,0.250000X-0.412500X-1.100000X0.412500X-1.100000X0.412500X1.100000X-0.412500X1.100000X0*%
%ADD27RoundRect,0.250000X1.100000X-0.412500X1.100000X0.412500X-1.100000X0.412500X-1.100000X-0.412500X0*%
G04 APERTURE END LIST*
D10*
X154296472Y-95315952D02*
X154272662Y-95363571D01*
X154272662Y-95435000D01*
X154296472Y-95506428D01*
X154344091Y-95554047D01*
X154391710Y-95577857D01*
X154486948Y-95601666D01*
X154558376Y-95601666D01*
X154653614Y-95577857D01*
X154701233Y-95554047D01*
X154748852Y-95506428D01*
X154772662Y-95435000D01*
X154772662Y-95387380D01*
X154748852Y-95315952D01*
X154725043Y-95292142D01*
X154558376Y-95292142D01*
X154558376Y-95387380D01*
X154772662Y-95077857D02*
X154272662Y-95077857D01*
X154772662Y-94792142D01*
X154272662Y-94792142D01*
X154772662Y-94554047D02*
X154272662Y-94554047D01*
X154272662Y-94435000D01*
X154296472Y-94363571D01*
X154344091Y-94315952D01*
X154391710Y-94292142D01*
X154486948Y-94268333D01*
X154558376Y-94268333D01*
X154653614Y-94292142D01*
X154701233Y-94315952D01*
X154748852Y-94363571D01*
X154772662Y-94435000D01*
X154772662Y-94554047D01*
D11*
X144865519Y-81406428D02*
X145627424Y-81406428D01*
X142165519Y-81406428D02*
X142927424Y-81406428D01*
X142546472Y-81787380D02*
X142546472Y-81025476D01*
D12*
X113528571Y-87707142D02*
X114671428Y-87707142D01*
X114100000Y-88278571D02*
X114100000Y-87135714D01*
D13*
X154951233Y-85506428D02*
X154998852Y-85363571D01*
X154998852Y-85125476D01*
X154951233Y-85030238D01*
X154903614Y-84982619D01*
X154808376Y-84935000D01*
X154713138Y-84935000D01*
X154617900Y-84982619D01*
X154570281Y-85030238D01*
X154522662Y-85125476D01*
X154475043Y-85315952D01*
X154427424Y-85411190D01*
X154379805Y-85458809D01*
X154284567Y-85506428D01*
X154189329Y-85506428D01*
X154094091Y-85458809D01*
X154046472Y-85411190D01*
X153998852Y-85315952D01*
X153998852Y-85077857D01*
X154046472Y-84935000D01*
X154951233Y-84125476D02*
X154998852Y-84220714D01*
X154998852Y-84411190D01*
X154951233Y-84506428D01*
X154855995Y-84554047D01*
X154475043Y-84554047D01*
X154379805Y-84506428D01*
X154332186Y-84411190D01*
X154332186Y-84220714D01*
X154379805Y-84125476D01*
X154475043Y-84077857D01*
X154570281Y-84077857D01*
X154665519Y-84554047D01*
X154332186Y-83649285D02*
X154998852Y-83649285D01*
X154427424Y-83649285D02*
X154379805Y-83601666D01*
X154332186Y-83506428D01*
X154332186Y-83363571D01*
X154379805Y-83268333D01*
X154475043Y-83220714D01*
X154998852Y-83220714D01*
X154951233Y-82792142D02*
X154998852Y-82696904D01*
X154998852Y-82506428D01*
X154951233Y-82411190D01*
X154855995Y-82363571D01*
X154808376Y-82363571D01*
X154713138Y-82411190D01*
X154665519Y-82506428D01*
X154665519Y-82649285D01*
X154617900Y-82744523D01*
X154522662Y-82792142D01*
X154475043Y-82792142D01*
X154379805Y-82744523D01*
X154332186Y-82649285D01*
X154332186Y-82506428D01*
X154379805Y-82411190D01*
D11*
X116712380Y-92433095D02*
X115712380Y-92433095D01*
X115712380Y-92195000D01*
X115760000Y-92052142D01*
X115855238Y-91956904D01*
X115950476Y-91909285D01*
X116140952Y-91861666D01*
X116283809Y-91861666D01*
X116474285Y-91909285D01*
X116569523Y-91956904D01*
X116664761Y-92052142D01*
X116712380Y-92195000D01*
X116712380Y-92433095D01*
X116712380Y-90909285D02*
X116712380Y-91480714D01*
X116712380Y-91195000D02*
X115712380Y-91195000D01*
X115855238Y-91290238D01*
X115950476Y-91385476D01*
X115998095Y-91480714D01*
X120738095Y-90052380D02*
X120738095Y-90861904D01*
X120785714Y-90957142D01*
X120833333Y-91004761D01*
X120928571Y-91052380D01*
X121119047Y-91052380D01*
X121214285Y-91004761D01*
X121261904Y-90957142D01*
X121309523Y-90861904D01*
X121309523Y-90052380D01*
X122309523Y-91052380D02*
X121738095Y-91052380D01*
X122023809Y-91052380D02*
X122023809Y-90052380D01*
X121928571Y-90195238D01*
X121833333Y-90290476D01*
X121738095Y-90338095D01*
X138713095Y-90087380D02*
X138713095Y-90896904D01*
X138760714Y-90992142D01*
X138808333Y-91039761D01*
X138903571Y-91087380D01*
X139094047Y-91087380D01*
X139189285Y-91039761D01*
X139236904Y-90992142D01*
X139284523Y-90896904D01*
X139284523Y-90087380D01*
X139713095Y-90182619D02*
X139760714Y-90135000D01*
X139855952Y-90087380D01*
X140094047Y-90087380D01*
X140189285Y-90135000D01*
X140236904Y-90182619D01*
X140284523Y-90277857D01*
X140284523Y-90373095D01*
X140236904Y-90515952D01*
X139665476Y-91087380D01*
X140284523Y-91087380D01*
X154213138Y-86782380D02*
X154213138Y-87496666D01*
X154165519Y-87639523D01*
X154070281Y-87734761D01*
X153927424Y-87782380D01*
X153832186Y-87782380D01*
X154641710Y-86877619D02*
X154689329Y-86830000D01*
X154784567Y-86782380D01*
X155022662Y-86782380D01*
X155117900Y-86830000D01*
X155165519Y-86877619D01*
X155213138Y-86972857D01*
X155213138Y-87068095D01*
X155165519Y-87210952D01*
X154594091Y-87782380D01*
X155213138Y-87782380D01*
X146969880Y-83868333D02*
X147684166Y-83868333D01*
X147827023Y-83915952D01*
X147922261Y-84011190D01*
X147969880Y-84154047D01*
X147969880Y-84249285D01*
X147969880Y-82868333D02*
X147969880Y-83439761D01*
X147969880Y-83154047D02*
X146969880Y-83154047D01*
X147112738Y-83249285D01*
X147207976Y-83344523D01*
X147255595Y-83439761D01*
X137172380Y-85666666D02*
X136696190Y-86000000D01*
X137172380Y-86238095D02*
X136172380Y-86238095D01*
X136172380Y-85857142D01*
X136220000Y-85761904D01*
X136267619Y-85714285D01*
X136362857Y-85666666D01*
X136505714Y-85666666D01*
X136600952Y-85714285D01*
X136648571Y-85761904D01*
X136696190Y-85857142D01*
X136696190Y-86238095D01*
X136600952Y-85095238D02*
X136553333Y-85190476D01*
X136505714Y-85238095D01*
X136410476Y-85285714D01*
X136362857Y-85285714D01*
X136267619Y-85238095D01*
X136220000Y-85190476D01*
X136172380Y-85095238D01*
X136172380Y-84904761D01*
X136220000Y-84809523D01*
X136267619Y-84761904D01*
X136362857Y-84714285D01*
X136410476Y-84714285D01*
X136505714Y-84761904D01*
X136553333Y-84809523D01*
X136600952Y-84904761D01*
X136600952Y-85095238D01*
X136648571Y-85190476D01*
X136696190Y-85238095D01*
X136791428Y-85285714D01*
X136981904Y-85285714D01*
X137077142Y-85238095D01*
X137124761Y-85190476D01*
X137172380Y-85095238D01*
X137172380Y-84904761D01*
X137124761Y-84809523D01*
X137077142Y-84761904D01*
X136981904Y-84714285D01*
X136791428Y-84714285D01*
X136696190Y-84761904D01*
X136648571Y-84809523D01*
X136600952Y-84904761D01*
X148107380Y-88201666D02*
X147631190Y-88535000D01*
X148107380Y-88773095D02*
X147107380Y-88773095D01*
X147107380Y-88392142D01*
X147155000Y-88296904D01*
X147202619Y-88249285D01*
X147297857Y-88201666D01*
X147440714Y-88201666D01*
X147535952Y-88249285D01*
X147583571Y-88296904D01*
X147631190Y-88392142D01*
X147631190Y-88773095D01*
X147107380Y-87868333D02*
X147107380Y-87201666D01*
X148107380Y-87630238D01*
X126852380Y-95966666D02*
X126376190Y-96300000D01*
X126852380Y-96538095D02*
X125852380Y-96538095D01*
X125852380Y-96157142D01*
X125900000Y-96061904D01*
X125947619Y-96014285D01*
X126042857Y-95966666D01*
X126185714Y-95966666D01*
X126280952Y-96014285D01*
X126328571Y-96061904D01*
X126376190Y-96157142D01*
X126376190Y-96538095D01*
X126185714Y-95109523D02*
X126852380Y-95109523D01*
X125804761Y-95347619D02*
X126519047Y-95585714D01*
X126519047Y-94966666D01*
X144107380Y-97701666D02*
X143631190Y-98035000D01*
X144107380Y-98273095D02*
X143107380Y-98273095D01*
X143107380Y-97892142D01*
X143155000Y-97796904D01*
X143202619Y-97749285D01*
X143297857Y-97701666D01*
X143440714Y-97701666D01*
X143535952Y-97749285D01*
X143583571Y-97796904D01*
X143631190Y-97892142D01*
X143631190Y-98273095D01*
X143202619Y-97320714D02*
X143155000Y-97273095D01*
X143107380Y-97177857D01*
X143107380Y-96939761D01*
X143155000Y-96844523D01*
X143202619Y-96796904D01*
X143297857Y-96749285D01*
X143393095Y-96749285D01*
X143535952Y-96796904D01*
X144107380Y-97368333D01*
X144107380Y-96749285D01*
X120833333Y-89772380D02*
X120500000Y-89296190D01*
X120261904Y-89772380D02*
X120261904Y-88772380D01*
X120642857Y-88772380D01*
X120738095Y-88820000D01*
X120785714Y-88867619D01*
X120833333Y-88962857D01*
X120833333Y-89105714D01*
X120785714Y-89200952D01*
X120738095Y-89248571D01*
X120642857Y-89296190D01*
X120261904Y-89296190D01*
X121166666Y-88772380D02*
X121785714Y-88772380D01*
X121452380Y-89153333D01*
X121595238Y-89153333D01*
X121690476Y-89200952D01*
X121738095Y-89248571D01*
X121785714Y-89343809D01*
X121785714Y-89581904D01*
X121738095Y-89677142D01*
X121690476Y-89724761D01*
X121595238Y-89772380D01*
X121309523Y-89772380D01*
X121214285Y-89724761D01*
X121166666Y-89677142D01*
X151747380Y-94701666D02*
X151271190Y-95035000D01*
X151747380Y-95273095D02*
X150747380Y-95273095D01*
X150747380Y-94892142D01*
X150795000Y-94796904D01*
X150842619Y-94749285D01*
X150937857Y-94701666D01*
X151080714Y-94701666D01*
X151175952Y-94749285D01*
X151223571Y-94796904D01*
X151271190Y-94892142D01*
X151271190Y-95273095D01*
X150747380Y-93796904D02*
X150747380Y-94273095D01*
X151223571Y-94320714D01*
X151175952Y-94273095D01*
X151128333Y-94177857D01*
X151128333Y-93939761D01*
X151175952Y-93844523D01*
X151223571Y-93796904D01*
X151318809Y-93749285D01*
X151556904Y-93749285D01*
X151652142Y-93796904D01*
X151699761Y-93844523D01*
X151747380Y-93939761D01*
X151747380Y-94177857D01*
X151699761Y-94273095D01*
X151652142Y-94320714D01*
X140808333Y-98712142D02*
X140760714Y-98759761D01*
X140617857Y-98807380D01*
X140522619Y-98807380D01*
X140379761Y-98759761D01*
X140284523Y-98664523D01*
X140236904Y-98569285D01*
X140189285Y-98378809D01*
X140189285Y-98235952D01*
X140236904Y-98045476D01*
X140284523Y-97950238D01*
X140379761Y-97855000D01*
X140522619Y-97807380D01*
X140617857Y-97807380D01*
X140760714Y-97855000D01*
X140808333Y-97902619D01*
X141760714Y-98807380D02*
X141189285Y-98807380D01*
X141475000Y-98807380D02*
X141475000Y-97807380D01*
X141379761Y-97950238D01*
X141284523Y-98045476D01*
X141189285Y-98093095D01*
X130032380Y-85766666D02*
X129556190Y-86100000D01*
X130032380Y-86338095D02*
X129032380Y-86338095D01*
X129032380Y-85957142D01*
X129080000Y-85861904D01*
X129127619Y-85814285D01*
X129222857Y-85766666D01*
X129365714Y-85766666D01*
X129460952Y-85814285D01*
X129508571Y-85861904D01*
X129556190Y-85957142D01*
X129556190Y-86338095D01*
X129032380Y-84909523D02*
X129032380Y-85100000D01*
X129080000Y-85195238D01*
X129127619Y-85242857D01*
X129270476Y-85338095D01*
X129460952Y-85385714D01*
X129841904Y-85385714D01*
X129937142Y-85338095D01*
X129984761Y-85290476D01*
X130032380Y-85195238D01*
X130032380Y-85004761D01*
X129984761Y-84909523D01*
X129937142Y-84861904D01*
X129841904Y-84814285D01*
X129603809Y-84814285D01*
X129508571Y-84861904D01*
X129460952Y-84909523D01*
X129413333Y-85004761D01*
X129413333Y-85195238D01*
X129460952Y-85290476D01*
X129508571Y-85338095D01*
X129603809Y-85385714D01*
X129857142Y-94366666D02*
X129904761Y-94414285D01*
X129952380Y-94557142D01*
X129952380Y-94652380D01*
X129904761Y-94795238D01*
X129809523Y-94890476D01*
X129714285Y-94938095D01*
X129523809Y-94985714D01*
X129380952Y-94985714D01*
X129190476Y-94938095D01*
X129095238Y-94890476D01*
X129000000Y-94795238D01*
X128952380Y-94652380D01*
X128952380Y-94557142D01*
X129000000Y-94414285D01*
X129047619Y-94366666D01*
X129285714Y-93509523D02*
X129952380Y-93509523D01*
X128904761Y-93747619D02*
X129619047Y-93985714D01*
X129619047Y-93366666D01*
X120833333Y-101452380D02*
X120500000Y-100976190D01*
X120261904Y-101452380D02*
X120261904Y-100452380D01*
X120642857Y-100452380D01*
X120738095Y-100500000D01*
X120785714Y-100547619D01*
X120833333Y-100642857D01*
X120833333Y-100785714D01*
X120785714Y-100880952D01*
X120738095Y-100928571D01*
X120642857Y-100976190D01*
X120261904Y-100976190D01*
X121785714Y-101452380D02*
X121214285Y-101452380D01*
X121500000Y-101452380D02*
X121500000Y-100452380D01*
X121404761Y-100595238D01*
X121309523Y-100690476D01*
X121214285Y-100738095D01*
X142808333Y-86592142D02*
X142760714Y-86639761D01*
X142617857Y-86687380D01*
X142522619Y-86687380D01*
X142379761Y-86639761D01*
X142284523Y-86544523D01*
X142236904Y-86449285D01*
X142189285Y-86258809D01*
X142189285Y-86115952D01*
X142236904Y-85925476D01*
X142284523Y-85830238D01*
X142379761Y-85735000D01*
X142522619Y-85687380D01*
X142617857Y-85687380D01*
X142760714Y-85735000D01*
X142808333Y-85782619D01*
X143665476Y-85687380D02*
X143475000Y-85687380D01*
X143379761Y-85735000D01*
X143332142Y-85782619D01*
X143236904Y-85925476D01*
X143189285Y-86115952D01*
X143189285Y-86496904D01*
X143236904Y-86592142D01*
X143284523Y-86639761D01*
X143379761Y-86687380D01*
X143570238Y-86687380D01*
X143665476Y-86639761D01*
X143713095Y-86592142D01*
X143760714Y-86496904D01*
X143760714Y-86258809D01*
X143713095Y-86163571D01*
X143665476Y-86115952D01*
X143570238Y-86068333D01*
X143379761Y-86068333D01*
X143284523Y-86115952D01*
X143236904Y-86163571D01*
X143189285Y-86258809D01*
X129633333Y-89757142D02*
X129585714Y-89804761D01*
X129442857Y-89852380D01*
X129347619Y-89852380D01*
X129204761Y-89804761D01*
X129109523Y-89709523D01*
X129061904Y-89614285D01*
X129014285Y-89423809D01*
X129014285Y-89280952D01*
X129061904Y-89090476D01*
X129109523Y-88995238D01*
X129204761Y-88900000D01*
X129347619Y-88852380D01*
X129442857Y-88852380D01*
X129585714Y-88900000D01*
X129633333Y-88947619D01*
X130538095Y-88852380D02*
X130061904Y-88852380D01*
X130014285Y-89328571D01*
X130061904Y-89280952D01*
X130157142Y-89233333D01*
X130395238Y-89233333D01*
X130490476Y-89280952D01*
X130538095Y-89328571D01*
X130585714Y-89423809D01*
X130585714Y-89661904D01*
X130538095Y-89757142D01*
X130490476Y-89804761D01*
X130395238Y-89852380D01*
X130157142Y-89852380D01*
X130061904Y-89804761D01*
X130014285Y-89757142D01*
X126357142Y-82366666D02*
X126404761Y-82414285D01*
X126452380Y-82557142D01*
X126452380Y-82652380D01*
X126404761Y-82795238D01*
X126309523Y-82890476D01*
X126214285Y-82938095D01*
X126023809Y-82985714D01*
X125880952Y-82985714D01*
X125690476Y-82938095D01*
X125595238Y-82890476D01*
X125500000Y-82795238D01*
X125452380Y-82652380D01*
X125452380Y-82557142D01*
X125500000Y-82414285D01*
X125547619Y-82366666D01*
X125452380Y-82033333D02*
X125452380Y-81414285D01*
X125833333Y-81747619D01*
X125833333Y-81604761D01*
X125880952Y-81509523D01*
X125928571Y-81461904D01*
X126023809Y-81414285D01*
X126261904Y-81414285D01*
X126357142Y-81461904D01*
X126404761Y-81509523D01*
X126452380Y-81604761D01*
X126452380Y-81890476D01*
X126404761Y-81985714D01*
X126357142Y-82033333D01*
X120833333Y-82057142D02*
X120785714Y-82104761D01*
X120642857Y-82152380D01*
X120547619Y-82152380D01*
X120404761Y-82104761D01*
X120309523Y-82009523D01*
X120261904Y-81914285D01*
X120214285Y-81723809D01*
X120214285Y-81580952D01*
X120261904Y-81390476D01*
X120309523Y-81295238D01*
X120404761Y-81200000D01*
X120547619Y-81152380D01*
X120642857Y-81152380D01*
X120785714Y-81200000D01*
X120833333Y-81247619D01*
X121214285Y-81247619D02*
X121261904Y-81200000D01*
X121357142Y-81152380D01*
X121595238Y-81152380D01*
X121690476Y-81200000D01*
X121738095Y-81247619D01*
X121785714Y-81342857D01*
X121785714Y-81438095D01*
X121738095Y-81580952D01*
X121166666Y-82152380D01*
X121785714Y-82152380D01*
D14*
X112920000Y-90225000D02*
X112740000Y-90225000D01*
X112920000Y-89985000D02*
X112740000Y-89985000D01*
X115260000Y-89985000D02*
X115080000Y-89985000D01*
X115260000Y-90105000D02*
X115080000Y-90105000D01*
X115260000Y-89985000D02*
X115260000Y-93405000D01*
X115260000Y-93405000D02*
X115095000Y-93405000D01*
X112920000Y-90105000D02*
X112740000Y-90105000D01*
X112740000Y-89985000D02*
X112740000Y-93405000D01*
X112905000Y-93405000D02*
X112740000Y-93405000D01*
X115260000Y-90225000D02*
X115080000Y-90225000D01*
X121500000Y-96560000D02*
X119550000Y-96560000D01*
X121500000Y-96560000D02*
X123450000Y-96560000D01*
X121500000Y-91440000D02*
X118050000Y-91440000D01*
X121500000Y-91440000D02*
X123450000Y-91440000D01*
X139475000Y-91475000D02*
X141425000Y-91475000D01*
X139475000Y-96595000D02*
X141425000Y-96595000D01*
X139475000Y-91475000D02*
X136025000Y-91475000D01*
X139475000Y-96595000D02*
X137525000Y-96595000D01*
X153216472Y-90930000D02*
X155876472Y-90930000D01*
X153216472Y-89660000D02*
X153216472Y-88330000D01*
X153216472Y-90930000D02*
X153216472Y-93530000D01*
X153216472Y-93530000D02*
X155876472Y-93530000D01*
X153216472Y-88330000D02*
X154546472Y-88330000D01*
X155876472Y-90930000D02*
X155876472Y-93530000D01*
X143917500Y-82205000D02*
X141317500Y-82205000D01*
X141317500Y-82205000D02*
X141317500Y-84865000D01*
X146517500Y-82205000D02*
X146517500Y-83535000D01*
X143917500Y-82205000D02*
X143917500Y-84865000D01*
X145187500Y-82205000D02*
X146517500Y-82205000D01*
X143917500Y-84865000D02*
X141317500Y-84865000D01*
X133990000Y-84772936D02*
X133990000Y-86227064D01*
X135810000Y-84772936D02*
X135810000Y-86227064D01*
X148565000Y-88762064D02*
X148565000Y-87307936D01*
X150385000Y-88762064D02*
X150385000Y-87307936D01*
X130410000Y-98727064D02*
X130410000Y-97272936D01*
X128590000Y-98727064D02*
X128590000Y-97272936D01*
X144565000Y-98262064D02*
X144565000Y-96807936D01*
X146385000Y-98262064D02*
X146385000Y-96807936D01*
X121727064Y-86590000D02*
X120272936Y-86590000D01*
X121727064Y-88410000D02*
X120272936Y-88410000D01*
X150385000Y-93807936D02*
X150385000Y-95262064D01*
X148565000Y-93807936D02*
X148565000Y-95262064D01*
X140713748Y-100770000D02*
X141236252Y-100770000D01*
X140713748Y-99300000D02*
X141236252Y-99300000D01*
X130490000Y-86327064D02*
X130490000Y-84872936D01*
X132310000Y-86327064D02*
X132310000Y-84872936D01*
X125765000Y-98738748D02*
X125765000Y-99261252D01*
X127235000Y-98738748D02*
X127235000Y-99261252D01*
X120272936Y-99910000D02*
X121727064Y-99910000D01*
X120272936Y-98090000D02*
X121727064Y-98090000D01*
X142263748Y-89895000D02*
X143686252Y-89895000D01*
X142263748Y-87175000D02*
X143686252Y-87175000D01*
X129088748Y-90040000D02*
X130511252Y-90040000D01*
X129088748Y-92760000D02*
X130511252Y-92760000D01*
X124640000Y-86711252D02*
X124640000Y-85288748D01*
X127360000Y-86711252D02*
X127360000Y-85288748D01*
X120288748Y-82640000D02*
X121711252Y-82640000D01*
X120288748Y-85360000D02*
X121711252Y-85360000D01*
%LPC*%
D15*
X114000000Y-90425000D03*
D16*
X114000000Y-92965000D03*
D17*
X119025000Y-92095000D03*
X119025000Y-93365000D03*
X119025000Y-94635000D03*
X119025000Y-95905000D03*
X123975000Y-95905000D03*
X123975000Y-94635000D03*
X123975000Y-93365000D03*
X123975000Y-92095000D03*
X137000000Y-92130000D03*
X137000000Y-93400000D03*
X137000000Y-94670000D03*
X137000000Y-95940000D03*
X141950000Y-95940000D03*
X141950000Y-94670000D03*
X141950000Y-93400000D03*
X141950000Y-92130000D03*
D18*
X116375000Y-86450000D03*
D19*
X154546472Y-89660000D03*
D18*
X154546472Y-92200000D03*
D19*
X145187500Y-83535000D03*
D18*
X142647500Y-83535000D03*
D20*
X134900000Y-83950000D03*
X134900000Y-87050000D03*
D21*
X149475000Y-89585000D03*
X149475000Y-86485000D03*
X129500000Y-99550000D03*
X129500000Y-96450000D03*
X145475000Y-99085000D03*
X145475000Y-95985000D03*
D22*
X122550000Y-87500000D03*
X119450000Y-87500000D03*
D20*
X149475000Y-92985000D03*
X149475000Y-96085000D03*
D23*
X139937500Y-100035000D03*
X142012500Y-100035000D03*
D21*
X131400000Y-87150000D03*
X131400000Y-84050000D03*
D24*
X126500000Y-97962500D03*
X126500000Y-100037500D03*
D25*
X119450000Y-99000000D03*
X122550000Y-99000000D03*
D26*
X141412500Y-88535000D03*
X144537500Y-88535000D03*
X128237500Y-91400000D03*
X131362500Y-91400000D03*
D27*
X126000000Y-87562500D03*
X126000000Y-84437500D03*
D26*
X119437500Y-84000000D03*
X122562500Y-84000000D03*
M02*
