G04 #@! TF.GenerationSoftware,KiCad,Pcbnew,(6.0.9)*
G04 #@! TF.CreationDate,2022-11-30T14:59:24+01:00*
G04 #@! TF.ProjectId,Sensor,53656e73-6f72-42e6-9b69-6361645f7063,rev?*
G04 #@! TF.SameCoordinates,Original*
G04 #@! TF.FileFunction,Copper,L1,Top*
G04 #@! TF.FilePolarity,Positive*
%FSLAX46Y46*%
G04 Gerber Fmt 4.6, Leading zero omitted, Abs format (unit mm)*
G04 Created by KiCad (PCBNEW (6.0.9)) date 2022-11-30 14:59:24*
%MOMM*%
%LPD*%
G01*
G04 APERTURE LIST*
G04 Aperture macros list*
%AMRoundRect*
0 Rectangle with rounded corners*
0 $1 Rounding radius*
0 $2 $3 $4 $5 $6 $7 $8 $9 X,Y pos of 4 corners*
0 Add a 4 corners polygon primitive as box body*
4,1,4,$2,$3,$4,$5,$6,$7,$8,$9,$2,$3,0*
0 Add four circle primitives for the rounded corners*
1,1,$1+$1,$2,$3*
1,1,$1+$1,$4,$5*
1,1,$1+$1,$6,$7*
1,1,$1+$1,$8,$9*
0 Add four rect primitives between the rounded corners*
20,1,$1+$1,$2,$3,$4,$5,0*
20,1,$1+$1,$4,$5,$6,$7,0*
20,1,$1+$1,$6,$7,$8,$9,0*
20,1,$1+$1,$8,$9,$2,$3,0*%
G04 Aperture macros list end*
G04 #@! TA.AperFunction,ComponentPad*
%ADD10R,1.800000X1.800000*%
G04 #@! TD*
G04 #@! TA.AperFunction,ComponentPad*
%ADD11C,1.800000*%
G04 #@! TD*
G04 #@! TA.AperFunction,SMDPad,CuDef*
%ADD12RoundRect,0.150000X-0.825000X-0.150000X0.825000X-0.150000X0.825000X0.150000X-0.825000X0.150000X0*%
G04 #@! TD*
G04 #@! TA.AperFunction,ComponentPad*
%ADD13O,1.700000X1.700000*%
G04 #@! TD*
G04 #@! TA.AperFunction,ComponentPad*
%ADD14R,1.700000X1.700000*%
G04 #@! TD*
G04 #@! TA.AperFunction,SMDPad,CuDef*
%ADD15RoundRect,0.250000X-0.625000X0.400000X-0.625000X-0.400000X0.625000X-0.400000X0.625000X0.400000X0*%
G04 #@! TD*
G04 #@! TA.AperFunction,SMDPad,CuDef*
%ADD16RoundRect,0.250000X0.625000X-0.400000X0.625000X0.400000X-0.625000X0.400000X-0.625000X-0.400000X0*%
G04 #@! TD*
G04 #@! TA.AperFunction,SMDPad,CuDef*
%ADD17RoundRect,0.250000X0.400000X0.625000X-0.400000X0.625000X-0.400000X-0.625000X0.400000X-0.625000X0*%
G04 #@! TD*
G04 #@! TA.AperFunction,SMDPad,CuDef*
%ADD18RoundRect,0.250000X-0.337500X-0.475000X0.337500X-0.475000X0.337500X0.475000X-0.337500X0.475000X0*%
G04 #@! TD*
G04 #@! TA.AperFunction,SMDPad,CuDef*
%ADD19RoundRect,0.250000X-0.475000X0.337500X-0.475000X-0.337500X0.475000X-0.337500X0.475000X0.337500X0*%
G04 #@! TD*
G04 #@! TA.AperFunction,SMDPad,CuDef*
%ADD20RoundRect,0.250000X-0.400000X-0.625000X0.400000X-0.625000X0.400000X0.625000X-0.400000X0.625000X0*%
G04 #@! TD*
G04 #@! TA.AperFunction,SMDPad,CuDef*
%ADD21RoundRect,0.250000X-0.412500X-1.100000X0.412500X-1.100000X0.412500X1.100000X-0.412500X1.100000X0*%
G04 #@! TD*
G04 #@! TA.AperFunction,SMDPad,CuDef*
%ADD22RoundRect,0.250000X1.100000X-0.412500X1.100000X0.412500X-1.100000X0.412500X-1.100000X-0.412500X0*%
G04 #@! TD*
G04 #@! TA.AperFunction,ViaPad*
%ADD23C,4.000000*%
G04 #@! TD*
G04 #@! TA.AperFunction,Conductor*
%ADD24C,0.500000*%
G04 #@! TD*
G04 APERTURE END LIST*
D10*
X114000000Y-90425000D03*
D11*
X114000000Y-92965000D03*
D12*
X119025000Y-92095000D03*
X119025000Y-93365000D03*
X119025000Y-94635000D03*
X119025000Y-95905000D03*
X123975000Y-95905000D03*
X123975000Y-94635000D03*
X123975000Y-93365000D03*
X123975000Y-92095000D03*
X137000000Y-92130000D03*
X137000000Y-93400000D03*
X137000000Y-94670000D03*
X137000000Y-95940000D03*
X141950000Y-95940000D03*
X141950000Y-94670000D03*
X141950000Y-93400000D03*
X141950000Y-92130000D03*
D13*
X116375000Y-86450000D03*
D14*
X154546472Y-89660000D03*
D13*
X154546472Y-92200000D03*
D14*
X145187500Y-83535000D03*
D13*
X142647500Y-83535000D03*
D15*
X134900000Y-83950000D03*
X134900000Y-87050000D03*
D16*
X149475000Y-89585000D03*
X149475000Y-86485000D03*
X129500000Y-99550000D03*
X129500000Y-96450000D03*
X145475000Y-99085000D03*
X145475000Y-95985000D03*
D17*
X122550000Y-87500000D03*
X119450000Y-87500000D03*
D15*
X149475000Y-92985000D03*
X149475000Y-96085000D03*
D18*
X139937500Y-100035000D03*
X142012500Y-100035000D03*
D16*
X131400000Y-87150000D03*
X131400000Y-84050000D03*
D19*
X126500000Y-97962500D03*
X126500000Y-100037500D03*
D20*
X119450000Y-99000000D03*
X122550000Y-99000000D03*
D21*
X141412500Y-88535000D03*
X144537500Y-88535000D03*
X128237500Y-91400000D03*
X131362500Y-91400000D03*
D22*
X126000000Y-87562500D03*
X126000000Y-84437500D03*
D21*
X119437500Y-84000000D03*
X122562500Y-84000000D03*
D23*
X161175000Y-99700000D03*
X161075000Y-83775000D03*
X113300000Y-83500000D03*
X113550000Y-99725000D03*
D24*
X119437500Y-84000000D02*
X118825000Y-84000000D01*
X118825000Y-84000000D02*
X116375000Y-86450000D01*
X138946472Y-96062944D02*
X137553528Y-94670000D01*
X136897500Y-99550000D02*
X138946472Y-97501028D01*
X129500000Y-99550000D02*
X136897500Y-99550000D01*
X138946472Y-97501028D02*
X138946472Y-96062944D01*
X138377500Y-85500000D02*
X138412500Y-85535000D01*
X130435051Y-85500000D02*
X138377500Y-85500000D01*
X129700000Y-89937500D02*
X128237500Y-91400000D01*
X129700000Y-86235051D02*
X129700000Y-89937500D01*
X130435051Y-85500000D02*
X129700000Y-86235051D01*
X134800000Y-87150000D02*
X134900000Y-87050000D01*
X131400000Y-87150000D02*
X134800000Y-87150000D01*
X128500000Y-84700000D02*
X129150000Y-84050000D01*
X127637500Y-87562500D02*
X128500000Y-86700000D01*
X129150000Y-84050000D02*
X131400000Y-84050000D01*
X126000000Y-87562500D02*
X127637500Y-87562500D01*
X128500000Y-86700000D02*
X128500000Y-84700000D01*
X126272500Y-93365000D02*
X128237500Y-91400000D01*
X123975000Y-93365000D02*
X126272500Y-93365000D01*
X125937500Y-87500000D02*
X126000000Y-87562500D01*
X122550000Y-87500000D02*
X125937500Y-87500000D01*
X152800000Y-89660000D02*
X154546472Y-89660000D01*
X149475000Y-92985000D02*
X152800000Y-89660000D01*
X117637182Y-89312818D02*
X119450000Y-87500000D01*
X115112182Y-89312818D02*
X117637182Y-89312818D01*
X114000000Y-90425000D02*
X115112182Y-89312818D01*
X116235000Y-92965000D02*
X116635000Y-93365000D01*
X114000000Y-92965000D02*
X116235000Y-92965000D01*
X141950000Y-95940000D02*
X141950000Y-99972500D01*
X139475000Y-92535000D02*
X139475000Y-90472500D01*
X142647500Y-83535000D02*
X140412500Y-83535000D01*
X140340000Y-93400000D02*
X139475000Y-92535000D01*
X141950000Y-93400000D02*
X140340000Y-93400000D01*
X119450000Y-84012500D02*
X119437500Y-84000000D01*
X141412500Y-88535000D02*
X138412500Y-85535000D01*
X140412500Y-83535000D02*
X138412500Y-85535000D01*
X139475000Y-90472500D02*
X141412500Y-88535000D01*
X119450000Y-87500000D02*
X119450000Y-84012500D01*
X121000000Y-89050000D02*
X122550000Y-87500000D01*
X121000000Y-93270000D02*
X121000000Y-89050000D01*
X119025000Y-94635000D02*
X119635000Y-94635000D01*
X119635000Y-94635000D02*
X121000000Y-93270000D01*
X126437500Y-87500000D02*
X126500000Y-87562500D01*
X126500000Y-97500000D02*
X126500000Y-97962500D01*
X123975000Y-95905000D02*
X124905000Y-95905000D01*
X124905000Y-95905000D02*
X126500000Y-97500000D01*
X116635000Y-93365000D02*
X119025000Y-93365000D01*
X116635000Y-96185000D02*
X119450000Y-99000000D01*
X116635000Y-93365000D02*
X116635000Y-96185000D01*
X149475000Y-92985000D02*
X149475000Y-89585000D01*
X122550000Y-95506472D02*
X122550000Y-99000000D01*
X123421472Y-94635000D02*
X122550000Y-95506472D01*
X123975000Y-94635000D02*
X127685000Y-94635000D01*
X127685000Y-94635000D02*
X129500000Y-96450000D01*
X123975000Y-94635000D02*
X123421472Y-94635000D01*
X143350000Y-101210000D02*
X141149999Y-101210000D01*
X129500000Y-99550000D02*
X129550000Y-99500000D01*
X140975000Y-101035001D02*
X140975000Y-98091472D01*
X137553528Y-94670000D02*
X137000000Y-94670000D01*
X145475000Y-99085000D02*
X143350000Y-101210000D01*
X141149999Y-101210000D02*
X140975000Y-101035001D01*
X140975000Y-98091472D02*
X137553528Y-94670000D01*
X149375000Y-95985000D02*
X149475000Y-96085000D01*
X145475000Y-95535000D02*
X144610000Y-94670000D01*
X144610000Y-94670000D02*
X141950000Y-94670000D01*
X145475000Y-95985000D02*
X145475000Y-95535000D01*
X145475000Y-95985000D02*
X149375000Y-95985000D01*
X134946472Y-92535000D02*
X134946472Y-87085000D01*
X137000000Y-93400000D02*
X135811472Y-93400000D01*
X135811472Y-93400000D02*
X134946472Y-92535000D01*
G04 #@! TA.AperFunction,Conductor*
G36*
X165133621Y-80428502D02*
G01*
X165180114Y-80482158D01*
X165191500Y-80534500D01*
X165191500Y-102765500D01*
X165171498Y-102833621D01*
X165117842Y-102880114D01*
X165065500Y-102891500D01*
X110459500Y-102891500D01*
X110391379Y-102871498D01*
X110344886Y-102817842D01*
X110333500Y-102765500D01*
X110333500Y-100422095D01*
X125267001Y-100422095D01*
X125267338Y-100428614D01*
X125277257Y-100524206D01*
X125280149Y-100537600D01*
X125331588Y-100691784D01*
X125337761Y-100704962D01*
X125423063Y-100842807D01*
X125432099Y-100854208D01*
X125546829Y-100968739D01*
X125558240Y-100977751D01*
X125696243Y-101062816D01*
X125709424Y-101068963D01*
X125863710Y-101120138D01*
X125877086Y-101123005D01*
X125971438Y-101132672D01*
X125977854Y-101133000D01*
X126227885Y-101133000D01*
X126243124Y-101128525D01*
X126244329Y-101127135D01*
X126246000Y-101119452D01*
X126246000Y-101114884D01*
X126754000Y-101114884D01*
X126758475Y-101130123D01*
X126759865Y-101131328D01*
X126767548Y-101132999D01*
X127022095Y-101132999D01*
X127028614Y-101132662D01*
X127124206Y-101122743D01*
X127137600Y-101119851D01*
X127291784Y-101068412D01*
X127304962Y-101062239D01*
X127442807Y-100976937D01*
X127454208Y-100967901D01*
X127568739Y-100853171D01*
X127577751Y-100841760D01*
X127662816Y-100703757D01*
X127668963Y-100690576D01*
X127720138Y-100536290D01*
X127723005Y-100522914D01*
X127732672Y-100428562D01*
X127733000Y-100422146D01*
X127733000Y-100309615D01*
X127728525Y-100294376D01*
X127727135Y-100293171D01*
X127719452Y-100291500D01*
X126772115Y-100291500D01*
X126756876Y-100295975D01*
X126755671Y-100297365D01*
X126754000Y-100305048D01*
X126754000Y-101114884D01*
X126246000Y-101114884D01*
X126246000Y-100309615D01*
X126241525Y-100294376D01*
X126240135Y-100293171D01*
X126232452Y-100291500D01*
X125285116Y-100291500D01*
X125269877Y-100295975D01*
X125268672Y-100297365D01*
X125267001Y-100305048D01*
X125267001Y-100422095D01*
X110333500Y-100422095D01*
X110333500Y-92930469D01*
X112587095Y-92930469D01*
X112587392Y-92935622D01*
X112587392Y-92935625D01*
X112597514Y-93111169D01*
X112600427Y-93161697D01*
X112601564Y-93166743D01*
X112601565Y-93166749D01*
X112622684Y-93260458D01*
X112651346Y-93387642D01*
X112653288Y-93392424D01*
X112653289Y-93392428D01*
X112736540Y-93597450D01*
X112738484Y-93602237D01*
X112859501Y-93799719D01*
X113011147Y-93974784D01*
X113157773Y-94096515D01*
X113184800Y-94118953D01*
X113189349Y-94122730D01*
X113389322Y-94239584D01*
X113605694Y-94322209D01*
X113610760Y-94323240D01*
X113610761Y-94323240D01*
X113663846Y-94334040D01*
X113832656Y-94368385D01*
X113963324Y-94373176D01*
X114058949Y-94376683D01*
X114058953Y-94376683D01*
X114064113Y-94376872D01*
X114069233Y-94376216D01*
X114069235Y-94376216D01*
X114142270Y-94366860D01*
X114293847Y-94347442D01*
X114298795Y-94345957D01*
X114298802Y-94345956D01*
X114510747Y-94282369D01*
X114515690Y-94280886D01*
X114520324Y-94278616D01*
X114719049Y-94181262D01*
X114719052Y-94181260D01*
X114723684Y-94178991D01*
X114912243Y-94044494D01*
X115076303Y-93881005D01*
X115151777Y-93775973D01*
X115207770Y-93732326D01*
X115254098Y-93723500D01*
X115750500Y-93723500D01*
X115818621Y-93743502D01*
X115865114Y-93797158D01*
X115876500Y-93849500D01*
X115876500Y-96117930D01*
X115875067Y-96136880D01*
X115871801Y-96158349D01*
X115872394Y-96165641D01*
X115872394Y-96165644D01*
X115876085Y-96211018D01*
X115876500Y-96221233D01*
X115876500Y-96229293D01*
X115876925Y-96232937D01*
X115879789Y-96257507D01*
X115880222Y-96261882D01*
X115884885Y-96319203D01*
X115886140Y-96334637D01*
X115888396Y-96341601D01*
X115889587Y-96347560D01*
X115890971Y-96353415D01*
X115891818Y-96360681D01*
X115916735Y-96429327D01*
X115918152Y-96433455D01*
X115940649Y-96502899D01*
X115944445Y-96509154D01*
X115946951Y-96514628D01*
X115949670Y-96520058D01*
X115952167Y-96526937D01*
X115956180Y-96533057D01*
X115956180Y-96533058D01*
X115992186Y-96587976D01*
X115994523Y-96591680D01*
X116032405Y-96654107D01*
X116036121Y-96658315D01*
X116036122Y-96658316D01*
X116039803Y-96662484D01*
X116039776Y-96662508D01*
X116042429Y-96665500D01*
X116045132Y-96668733D01*
X116049144Y-96674852D01*
X116089941Y-96713500D01*
X116105383Y-96728128D01*
X116107825Y-96730506D01*
X118254595Y-98877276D01*
X118288621Y-98939588D01*
X118291500Y-98966371D01*
X118291500Y-99675400D01*
X118291837Y-99678646D01*
X118291837Y-99678650D01*
X118300837Y-99765385D01*
X118302474Y-99781166D01*
X118304655Y-99787702D01*
X118304655Y-99787704D01*
X118348728Y-99919806D01*
X118358450Y-99948946D01*
X118451522Y-100099348D01*
X118576697Y-100224305D01*
X118582927Y-100228145D01*
X118582928Y-100228146D01*
X118720090Y-100312694D01*
X118727262Y-100317115D01*
X118807005Y-100343564D01*
X118888611Y-100370632D01*
X118888613Y-100370632D01*
X118895139Y-100372797D01*
X118901975Y-100373497D01*
X118901978Y-100373498D01*
X118945031Y-100377909D01*
X118999600Y-100383500D01*
X119900400Y-100383500D01*
X119903646Y-100383163D01*
X119903650Y-100383163D01*
X119999308Y-100373238D01*
X119999312Y-100373237D01*
X120006166Y-100372526D01*
X120012702Y-100370345D01*
X120012704Y-100370345D01*
X120160937Y-100320890D01*
X120173946Y-100316550D01*
X120324348Y-100223478D01*
X120356161Y-100191610D01*
X120444134Y-100103483D01*
X120449305Y-100098303D01*
X120542115Y-99947738D01*
X120597797Y-99779861D01*
X120598813Y-99769952D01*
X120608172Y-99678598D01*
X120608500Y-99675400D01*
X120608500Y-98324600D01*
X120597526Y-98218834D01*
X120594797Y-98210652D01*
X120543868Y-98058002D01*
X120541550Y-98051054D01*
X120448478Y-97900652D01*
X120323303Y-97775695D01*
X120268382Y-97741841D01*
X120178968Y-97686725D01*
X120178966Y-97686724D01*
X120172738Y-97682885D01*
X120027256Y-97634631D01*
X120011389Y-97629368D01*
X120011387Y-97629368D01*
X120004861Y-97627203D01*
X119998025Y-97626503D01*
X119998022Y-97626502D01*
X119954969Y-97622091D01*
X119900400Y-97616500D01*
X119191371Y-97616500D01*
X119123250Y-97596498D01*
X119102276Y-97579595D01*
X118450776Y-96928095D01*
X118416750Y-96865783D01*
X118421815Y-96794968D01*
X118464362Y-96738132D01*
X118530882Y-96713321D01*
X118539871Y-96713000D01*
X118752885Y-96713000D01*
X118768124Y-96708525D01*
X118769329Y-96707135D01*
X118771000Y-96699452D01*
X118771000Y-96694884D01*
X119279000Y-96694884D01*
X119283475Y-96710123D01*
X119284865Y-96711328D01*
X119292548Y-96712999D01*
X119913984Y-96712999D01*
X119918920Y-96712805D01*
X119947336Y-96710570D01*
X119959931Y-96708270D01*
X120105790Y-96665893D01*
X120120221Y-96659648D01*
X120249678Y-96583089D01*
X120262104Y-96573449D01*
X120368449Y-96467104D01*
X120378089Y-96454678D01*
X120454648Y-96325221D01*
X120460893Y-96310790D01*
X120499939Y-96176395D01*
X120499899Y-96162294D01*
X120492630Y-96159000D01*
X119297115Y-96159000D01*
X119281876Y-96163475D01*
X119280671Y-96164865D01*
X119279000Y-96172548D01*
X119279000Y-96694884D01*
X118771000Y-96694884D01*
X118771000Y-95777000D01*
X118791002Y-95708879D01*
X118844658Y-95662386D01*
X118897000Y-95651000D01*
X120486878Y-95651000D01*
X120500409Y-95647027D01*
X120501544Y-95639129D01*
X120460893Y-95499210D01*
X120454648Y-95484779D01*
X120378089Y-95355323D01*
X120372129Y-95347640D01*
X120346180Y-95281556D01*
X120360078Y-95211933D01*
X120370421Y-95195839D01*
X120374453Y-95191807D01*
X120459145Y-95048601D01*
X120505562Y-94888831D01*
X120506067Y-94882420D01*
X120506068Y-94882412D01*
X120506334Y-94879035D01*
X120507008Y-94877268D01*
X120507225Y-94876078D01*
X120507446Y-94876118D01*
X120531622Y-94812694D01*
X120542850Y-94799831D01*
X121488911Y-93853770D01*
X121503323Y-93841384D01*
X121514918Y-93832851D01*
X121514923Y-93832846D01*
X121520818Y-93828508D01*
X121525557Y-93822930D01*
X121525560Y-93822927D01*
X121555035Y-93788232D01*
X121561965Y-93780716D01*
X121567661Y-93775020D01*
X121569924Y-93772159D01*
X121569929Y-93772154D01*
X121585293Y-93752734D01*
X121588082Y-93749333D01*
X121630592Y-93699296D01*
X121630594Y-93699294D01*
X121635333Y-93693715D01*
X121638662Y-93687195D01*
X121642028Y-93682148D01*
X121645193Y-93677024D01*
X121649735Y-93671283D01*
X121655004Y-93660011D01*
X121680634Y-93605170D01*
X121682565Y-93601218D01*
X121691379Y-93583958D01*
X121715769Y-93536192D01*
X121717508Y-93529086D01*
X121719609Y-93523436D01*
X121721524Y-93517679D01*
X121724622Y-93511050D01*
X121739491Y-93439565D01*
X121740461Y-93435282D01*
X121757808Y-93364390D01*
X121758500Y-93353236D01*
X121758535Y-93353238D01*
X121758775Y-93349266D01*
X121759152Y-93345045D01*
X121760641Y-93337885D01*
X121758546Y-93260458D01*
X121758500Y-93257050D01*
X121758500Y-89416371D01*
X121778502Y-89348250D01*
X121795405Y-89327276D01*
X122202276Y-88920405D01*
X122264588Y-88886379D01*
X122291371Y-88883500D01*
X123000400Y-88883500D01*
X123003646Y-88883163D01*
X123003650Y-88883163D01*
X123099308Y-88873238D01*
X123099312Y-88873237D01*
X123106166Y-88872526D01*
X123112702Y-88870345D01*
X123112704Y-88870345D01*
X123266998Y-88818868D01*
X123273946Y-88816550D01*
X123424348Y-88723478D01*
X123436109Y-88711697D01*
X123544134Y-88603483D01*
X123549305Y-88598303D01*
X123558943Y-88582668D01*
X123638275Y-88453968D01*
X123638276Y-88453966D01*
X123642115Y-88447738D01*
X123676247Y-88344833D01*
X123716678Y-88286473D01*
X123782242Y-88259236D01*
X123795840Y-88258500D01*
X124113219Y-88258500D01*
X124181340Y-88278502D01*
X124220363Y-88318197D01*
X124301522Y-88449348D01*
X124426697Y-88574305D01*
X124432927Y-88578145D01*
X124432928Y-88578146D01*
X124570090Y-88662694D01*
X124577262Y-88667115D01*
X124653148Y-88692285D01*
X124738611Y-88720632D01*
X124738613Y-88720632D01*
X124745139Y-88722797D01*
X124751975Y-88723497D01*
X124751978Y-88723498D01*
X124785789Y-88726962D01*
X124849600Y-88733500D01*
X127150400Y-88733500D01*
X127153646Y-88733163D01*
X127153650Y-88733163D01*
X127249308Y-88723238D01*
X127249312Y-88723237D01*
X127256166Y-88722526D01*
X127262702Y-88720345D01*
X127262704Y-88720345D01*
X127413593Y-88670004D01*
X127423946Y-88666550D01*
X127574348Y-88573478D01*
X127699305Y-88448303D01*
X127712543Y-88426828D01*
X127756711Y-88355174D01*
X127809484Y-88307680D01*
X127820971Y-88302854D01*
X127881827Y-88280765D01*
X127885955Y-88279348D01*
X127948436Y-88259107D01*
X127948438Y-88259106D01*
X127955399Y-88256851D01*
X127961654Y-88253055D01*
X127967128Y-88250549D01*
X127972558Y-88247830D01*
X127979437Y-88245333D01*
X127985558Y-88241320D01*
X128040476Y-88205314D01*
X128044180Y-88202977D01*
X128106607Y-88165095D01*
X128114984Y-88157697D01*
X128115008Y-88157724D01*
X128118000Y-88155071D01*
X128121233Y-88152368D01*
X128127352Y-88148356D01*
X128180628Y-88092117D01*
X128183006Y-88089675D01*
X128726405Y-87546276D01*
X128788717Y-87512250D01*
X128859532Y-87517315D01*
X128916368Y-87559862D01*
X128941179Y-87626382D01*
X128941500Y-87635371D01*
X128941500Y-89426633D01*
X128921498Y-89494754D01*
X128867842Y-89541247D01*
X128802658Y-89551977D01*
X128733359Y-89544877D01*
X128700400Y-89541500D01*
X127774600Y-89541500D01*
X127771354Y-89541837D01*
X127771350Y-89541837D01*
X127675692Y-89551762D01*
X127675688Y-89551763D01*
X127668834Y-89552474D01*
X127662298Y-89554655D01*
X127662296Y-89554655D01*
X127645928Y-89560116D01*
X127501054Y-89608450D01*
X127350652Y-89701522D01*
X127225695Y-89826697D01*
X127221855Y-89832927D01*
X127221854Y-89832928D01*
X127140516Y-89964883D01*
X127132885Y-89977262D01*
X127109162Y-90048785D01*
X127082491Y-90129197D01*
X127077203Y-90145139D01*
X127066500Y-90249600D01*
X127066500Y-91446129D01*
X127046498Y-91514250D01*
X127029595Y-91535224D01*
X125995224Y-92569595D01*
X125932912Y-92603621D01*
X125906129Y-92606500D01*
X125548519Y-92606500D01*
X125480398Y-92586498D01*
X125433905Y-92532842D01*
X125423801Y-92462568D01*
X125427522Y-92445348D01*
X125453767Y-92355011D01*
X125453768Y-92355007D01*
X125455562Y-92348831D01*
X125456078Y-92342287D01*
X125458307Y-92313958D01*
X125458307Y-92313950D01*
X125458500Y-92311502D01*
X125458500Y-91878498D01*
X125458307Y-91876042D01*
X125456067Y-91847579D01*
X125456066Y-91847574D01*
X125455562Y-91841169D01*
X125409145Y-91681399D01*
X125392107Y-91652589D01*
X125328491Y-91545020D01*
X125328489Y-91545017D01*
X125324453Y-91538193D01*
X125206807Y-91420547D01*
X125199983Y-91416511D01*
X125199980Y-91416509D01*
X125092411Y-91352893D01*
X125063601Y-91335855D01*
X125055990Y-91333644D01*
X125055988Y-91333643D01*
X125003769Y-91318472D01*
X124903831Y-91289438D01*
X124897426Y-91288934D01*
X124897421Y-91288933D01*
X124868958Y-91286693D01*
X124868950Y-91286693D01*
X124866502Y-91286500D01*
X123083498Y-91286500D01*
X123081050Y-91286693D01*
X123081042Y-91286693D01*
X123052579Y-91288933D01*
X123052574Y-91288934D01*
X123046169Y-91289438D01*
X122946231Y-91318472D01*
X122894012Y-91333643D01*
X122894010Y-91333644D01*
X122886399Y-91335855D01*
X122857589Y-91352893D01*
X122750020Y-91416509D01*
X122750017Y-91416511D01*
X122743193Y-91420547D01*
X122625547Y-91538193D01*
X122621511Y-91545017D01*
X122621509Y-91545020D01*
X122557893Y-91652589D01*
X122540855Y-91681399D01*
X122494438Y-91841169D01*
X122493934Y-91847574D01*
X122493933Y-91847579D01*
X122491693Y-91876042D01*
X122491500Y-91878498D01*
X122491500Y-92311502D01*
X122491693Y-92313950D01*
X122491693Y-92313958D01*
X122493923Y-92342287D01*
X122494438Y-92348831D01*
X122523472Y-92448769D01*
X122534545Y-92486880D01*
X122540855Y-92508601D01*
X122625547Y-92651807D01*
X122628229Y-92654489D01*
X122653502Y-92718861D01*
X122639600Y-92788484D01*
X122629428Y-92804312D01*
X122625547Y-92808193D01*
X122540855Y-92951399D01*
X122538644Y-92959010D01*
X122538643Y-92959012D01*
X122525542Y-93004107D01*
X122494438Y-93111169D01*
X122491500Y-93148498D01*
X122491500Y-93581502D01*
X122491693Y-93583950D01*
X122491693Y-93583958D01*
X122493479Y-93606641D01*
X122494438Y-93618831D01*
X122509677Y-93671283D01*
X122537650Y-93767568D01*
X122540855Y-93778601D01*
X122625547Y-93921807D01*
X122628229Y-93924489D01*
X122653502Y-93988861D01*
X122639600Y-94058484D01*
X122629428Y-94074312D01*
X122625547Y-94078193D01*
X122540855Y-94221399D01*
X122494438Y-94381169D01*
X122493934Y-94387574D01*
X122493933Y-94387579D01*
X122492169Y-94409992D01*
X122491500Y-94418498D01*
X122491500Y-94440101D01*
X122471498Y-94508222D01*
X122454595Y-94529196D01*
X122061089Y-94922702D01*
X122046677Y-94935088D01*
X122035082Y-94943621D01*
X122035077Y-94943626D01*
X122029182Y-94947964D01*
X122024443Y-94953542D01*
X122024440Y-94953545D01*
X121994965Y-94988240D01*
X121988035Y-94995756D01*
X121982340Y-95001451D01*
X121980060Y-95004333D01*
X121964719Y-95023723D01*
X121961928Y-95027127D01*
X121919409Y-95077175D01*
X121914667Y-95082757D01*
X121911339Y-95089273D01*
X121907972Y-95094322D01*
X121904805Y-95099451D01*
X121900266Y-95105188D01*
X121869345Y-95171347D01*
X121867442Y-95175241D01*
X121834231Y-95240280D01*
X121832492Y-95247388D01*
X121830393Y-95253031D01*
X121828476Y-95258794D01*
X121825378Y-95265422D01*
X121823888Y-95272584D01*
X121823888Y-95272585D01*
X121810514Y-95336884D01*
X121809544Y-95341168D01*
X121792192Y-95412082D01*
X121791844Y-95417684D01*
X121791844Y-95417687D01*
X121791500Y-95423234D01*
X121791500Y-95423236D01*
X121791464Y-95423234D01*
X121791225Y-95427227D01*
X121790851Y-95431419D01*
X121789360Y-95438587D01*
X121789558Y-95445904D01*
X121791454Y-95515993D01*
X121791500Y-95519400D01*
X121791500Y-97634631D01*
X121771498Y-97702752D01*
X121731807Y-97741772D01*
X121675652Y-97776522D01*
X121550695Y-97901697D01*
X121546855Y-97907927D01*
X121546854Y-97907928D01*
X121491761Y-97997306D01*
X121457885Y-98052262D01*
X121454032Y-98063879D01*
X121405350Y-98210652D01*
X121402203Y-98220139D01*
X121391500Y-98324600D01*
X121391500Y-99675400D01*
X121391837Y-99678646D01*
X121391837Y-99678650D01*
X121400837Y-99765385D01*
X121402474Y-99781166D01*
X121404655Y-99787702D01*
X121404655Y-99787704D01*
X121448728Y-99919806D01*
X121458450Y-99948946D01*
X121551522Y-100099348D01*
X121676697Y-100224305D01*
X121682927Y-100228145D01*
X121682928Y-100228146D01*
X121820090Y-100312694D01*
X121827262Y-100317115D01*
X121907005Y-100343564D01*
X121988611Y-100370632D01*
X121988613Y-100370632D01*
X121995139Y-100372797D01*
X122001975Y-100373497D01*
X122001978Y-100373498D01*
X122045031Y-100377909D01*
X122099600Y-100383500D01*
X123000400Y-100383500D01*
X123003646Y-100383163D01*
X123003650Y-100383163D01*
X123099308Y-100373238D01*
X123099312Y-100373237D01*
X123106166Y-100372526D01*
X123112702Y-100370345D01*
X123112704Y-100370345D01*
X123260937Y-100320890D01*
X123273946Y-100316550D01*
X123424348Y-100223478D01*
X123456161Y-100191610D01*
X123544134Y-100103483D01*
X123549305Y-100098303D01*
X123642115Y-99947738D01*
X123697797Y-99779861D01*
X123698813Y-99769952D01*
X123708172Y-99678598D01*
X123708500Y-99675400D01*
X123708500Y-98324600D01*
X123697526Y-98218834D01*
X123694797Y-98210652D01*
X123643868Y-98058002D01*
X123641550Y-98051054D01*
X123548478Y-97900652D01*
X123423303Y-97775695D01*
X123417075Y-97771856D01*
X123417070Y-97771852D01*
X123368383Y-97741841D01*
X123320890Y-97689069D01*
X123308500Y-97634582D01*
X123308500Y-96839500D01*
X123328502Y-96771379D01*
X123382158Y-96724886D01*
X123434500Y-96713500D01*
X124588629Y-96713500D01*
X124656750Y-96733502D01*
X124677724Y-96750405D01*
X125252182Y-97324863D01*
X125286208Y-97387175D01*
X125282681Y-97453622D01*
X125279368Y-97463610D01*
X125279367Y-97463615D01*
X125277203Y-97470139D01*
X125266500Y-97574600D01*
X125266500Y-98350400D01*
X125266837Y-98353646D01*
X125266837Y-98353650D01*
X125272100Y-98404368D01*
X125277474Y-98456166D01*
X125279655Y-98462702D01*
X125279655Y-98462704D01*
X125309011Y-98550695D01*
X125333450Y-98623946D01*
X125426522Y-98774348D01*
X125551697Y-98899305D01*
X125556235Y-98902102D01*
X125596824Y-98959353D01*
X125600054Y-99030276D01*
X125564428Y-99091687D01*
X125555932Y-99099062D01*
X125545793Y-99107098D01*
X125431261Y-99221829D01*
X125422249Y-99233240D01*
X125337184Y-99371243D01*
X125331037Y-99384424D01*
X125279862Y-99538710D01*
X125276995Y-99552086D01*
X125267328Y-99646438D01*
X125267000Y-99652855D01*
X125267000Y-99765385D01*
X125271475Y-99780624D01*
X125272865Y-99781829D01*
X125280548Y-99783500D01*
X127714884Y-99783500D01*
X127730123Y-99779025D01*
X127731328Y-99777635D01*
X127732999Y-99769952D01*
X127732999Y-99652905D01*
X127732662Y-99646386D01*
X127722743Y-99550794D01*
X127719851Y-99537400D01*
X127668412Y-99383216D01*
X127662239Y-99370038D01*
X127576937Y-99232193D01*
X127567901Y-99220792D01*
X127453172Y-99106262D01*
X127444238Y-99099206D01*
X127403177Y-99041288D01*
X127399947Y-98970365D01*
X127435574Y-98908954D01*
X127443407Y-98902154D01*
X127449348Y-98898478D01*
X127473715Y-98874069D01*
X127569134Y-98778483D01*
X127574305Y-98773303D01*
X127585837Y-98754595D01*
X127663275Y-98628968D01*
X127663276Y-98628966D01*
X127667115Y-98622738D01*
X127720328Y-98462306D01*
X127720632Y-98461389D01*
X127720632Y-98461387D01*
X127722797Y-98454861D01*
X127733500Y-98350400D01*
X127733500Y-97574600D01*
X127733163Y-97571350D01*
X127723238Y-97475692D01*
X127723237Y-97475688D01*
X127722526Y-97468834D01*
X127717021Y-97452332D01*
X127668868Y-97308002D01*
X127666550Y-97301054D01*
X127573478Y-97150652D01*
X127448303Y-97025695D01*
X127427228Y-97012704D01*
X127303968Y-96936725D01*
X127303966Y-96936724D01*
X127297738Y-96932885D01*
X127190099Y-96897183D01*
X127136389Y-96879368D01*
X127136387Y-96879368D01*
X127129861Y-96877203D01*
X127123025Y-96876503D01*
X127123022Y-96876502D01*
X127079969Y-96872091D01*
X127025400Y-96866500D01*
X126991370Y-96866500D01*
X126923249Y-96846498D01*
X126902275Y-96829595D01*
X125681276Y-95608595D01*
X125647250Y-95546283D01*
X125652315Y-95475467D01*
X125694862Y-95418632D01*
X125761382Y-95393821D01*
X125770371Y-95393500D01*
X127318629Y-95393500D01*
X127386750Y-95413502D01*
X127407724Y-95430405D01*
X128079595Y-96102276D01*
X128113621Y-96164588D01*
X128116500Y-96191371D01*
X128116500Y-96900400D01*
X128116837Y-96903646D01*
X128116837Y-96903650D01*
X128125520Y-96987332D01*
X128127474Y-97006166D01*
X128129655Y-97012702D01*
X128129655Y-97012704D01*
X128168999Y-97130632D01*
X128183450Y-97173946D01*
X128276522Y-97324348D01*
X128401697Y-97449305D01*
X128407927Y-97453145D01*
X128407928Y-97453146D01*
X128545090Y-97537694D01*
X128552262Y-97542115D01*
X128632005Y-97568564D01*
X128713611Y-97595632D01*
X128713613Y-97595632D01*
X128720139Y-97597797D01*
X128726975Y-97598497D01*
X128726978Y-97598498D01*
X128770031Y-97602909D01*
X128824600Y-97608500D01*
X130175400Y-97608500D01*
X130178646Y-97608163D01*
X130178650Y-97608163D01*
X130274308Y-97598238D01*
X130274312Y-97598237D01*
X130281166Y-97597526D01*
X130287702Y-97595345D01*
X130287704Y-97595345D01*
X130419806Y-97551272D01*
X130448946Y-97541550D01*
X130599348Y-97448478D01*
X130724305Y-97323303D01*
X130741860Y-97294824D01*
X130813275Y-97178968D01*
X130813276Y-97178966D01*
X130817115Y-97172738D01*
X130872797Y-97004861D01*
X130883500Y-96900400D01*
X130883500Y-96205871D01*
X135523456Y-96205871D01*
X135564107Y-96345790D01*
X135570352Y-96360221D01*
X135646911Y-96489678D01*
X135656551Y-96502104D01*
X135762896Y-96608449D01*
X135775322Y-96618089D01*
X135904779Y-96694648D01*
X135919210Y-96700893D01*
X136065065Y-96743269D01*
X136077667Y-96745570D01*
X136106084Y-96747807D01*
X136111014Y-96748000D01*
X136727885Y-96748000D01*
X136743124Y-96743525D01*
X136744329Y-96742135D01*
X136746000Y-96734452D01*
X136746000Y-96212115D01*
X136741525Y-96196876D01*
X136740135Y-96195671D01*
X136732452Y-96194000D01*
X135538122Y-96194000D01*
X135524591Y-96197973D01*
X135523456Y-96205871D01*
X130883500Y-96205871D01*
X130883500Y-95999600D01*
X130872526Y-95893834D01*
X130816550Y-95726054D01*
X130723478Y-95575652D01*
X130598303Y-95450695D01*
X130586631Y-95443500D01*
X130453968Y-95361725D01*
X130453966Y-95361724D01*
X130447738Y-95357885D01*
X130360317Y-95328889D01*
X130286389Y-95304368D01*
X130286387Y-95304368D01*
X130279861Y-95302203D01*
X130273025Y-95301503D01*
X130273022Y-95301502D01*
X130229969Y-95297091D01*
X130175400Y-95291500D01*
X129466371Y-95291500D01*
X129398250Y-95271498D01*
X129377276Y-95254595D01*
X128268770Y-94146089D01*
X128256384Y-94131677D01*
X128247851Y-94120082D01*
X128247846Y-94120077D01*
X128243508Y-94114182D01*
X128237930Y-94109443D01*
X128237927Y-94109440D01*
X128203232Y-94079965D01*
X128195716Y-94073035D01*
X128190021Y-94067340D01*
X128178827Y-94058484D01*
X128167749Y-94049719D01*
X128164345Y-94046928D01*
X128114297Y-94004409D01*
X128114295Y-94004408D01*
X128108715Y-93999667D01*
X128102199Y-93996339D01*
X128097150Y-93992972D01*
X128092021Y-93989805D01*
X128086284Y-93985266D01*
X128020125Y-93954345D01*
X128016225Y-93952439D01*
X128012218Y-93950393D01*
X127951192Y-93919231D01*
X127944084Y-93917492D01*
X127938441Y-93915393D01*
X127932678Y-93913476D01*
X127926050Y-93910378D01*
X127854583Y-93895513D01*
X127850299Y-93894543D01*
X127837855Y-93891498D01*
X127779390Y-93877192D01*
X127773788Y-93876844D01*
X127773785Y-93876844D01*
X127768236Y-93876500D01*
X127768238Y-93876464D01*
X127764245Y-93876225D01*
X127760053Y-93875851D01*
X127752885Y-93874360D01*
X127686675Y-93876151D01*
X127675479Y-93876454D01*
X127672072Y-93876500D01*
X127137871Y-93876500D01*
X127069750Y-93856498D01*
X127023257Y-93802842D01*
X127013153Y-93732568D01*
X127042647Y-93667988D01*
X127048776Y-93661405D01*
X127459157Y-93251024D01*
X127521469Y-93216998D01*
X127587919Y-93220526D01*
X127663611Y-93245632D01*
X127663613Y-93245632D01*
X127670139Y-93247797D01*
X127676975Y-93248497D01*
X127676978Y-93248498D01*
X127720031Y-93252909D01*
X127774600Y-93258500D01*
X128700400Y-93258500D01*
X128703646Y-93258163D01*
X128703650Y-93258163D01*
X128799308Y-93248238D01*
X128799312Y-93248237D01*
X128806166Y-93247526D01*
X128812702Y-93245345D01*
X128812704Y-93245345D01*
X128966998Y-93193868D01*
X128973946Y-93191550D01*
X129124348Y-93098478D01*
X129249305Y-92973303D01*
X129272530Y-92935625D01*
X129338275Y-92828968D01*
X129338276Y-92828966D01*
X129342115Y-92822738D01*
X129377003Y-92717553D01*
X129395632Y-92661389D01*
X129395632Y-92661387D01*
X129397797Y-92654861D01*
X129408500Y-92550400D01*
X129408500Y-92547095D01*
X130192001Y-92547095D01*
X130192338Y-92553614D01*
X130202257Y-92649206D01*
X130205149Y-92662600D01*
X130256588Y-92816784D01*
X130262761Y-92829962D01*
X130348063Y-92967807D01*
X130357099Y-92979208D01*
X130471829Y-93093739D01*
X130483240Y-93102751D01*
X130621243Y-93187816D01*
X130634424Y-93193963D01*
X130788710Y-93245138D01*
X130802086Y-93248005D01*
X130896438Y-93257672D01*
X130902854Y-93258000D01*
X131090385Y-93258000D01*
X131105624Y-93253525D01*
X131106829Y-93252135D01*
X131108500Y-93244452D01*
X131108500Y-93239884D01*
X131616500Y-93239884D01*
X131620975Y-93255123D01*
X131622365Y-93256328D01*
X131630048Y-93257999D01*
X131822095Y-93257999D01*
X131828614Y-93257662D01*
X131924206Y-93247743D01*
X131937600Y-93244851D01*
X132091784Y-93193412D01*
X132104962Y-93187239D01*
X132242807Y-93101937D01*
X132254208Y-93092901D01*
X132368739Y-92978171D01*
X132377751Y-92966760D01*
X132462816Y-92828757D01*
X132468963Y-92815576D01*
X132520138Y-92661290D01*
X132523005Y-92647914D01*
X132532672Y-92553562D01*
X132533000Y-92547146D01*
X132533000Y-91672115D01*
X132528525Y-91656876D01*
X132527135Y-91655671D01*
X132519452Y-91654000D01*
X131634615Y-91654000D01*
X131619376Y-91658475D01*
X131618171Y-91659865D01*
X131616500Y-91667548D01*
X131616500Y-93239884D01*
X131108500Y-93239884D01*
X131108500Y-91672115D01*
X131104025Y-91656876D01*
X131102635Y-91655671D01*
X131094952Y-91654000D01*
X130210116Y-91654000D01*
X130194877Y-91658475D01*
X130193672Y-91659865D01*
X130192001Y-91667548D01*
X130192001Y-92547095D01*
X129408500Y-92547095D01*
X129408500Y-91353871D01*
X129428502Y-91285750D01*
X129445405Y-91264776D01*
X129976905Y-90733276D01*
X130039217Y-90699250D01*
X130110032Y-90704315D01*
X130166868Y-90746862D01*
X130191679Y-90813382D01*
X130192000Y-90822371D01*
X130192000Y-91127885D01*
X130196475Y-91143124D01*
X130197865Y-91144329D01*
X130205548Y-91146000D01*
X131090385Y-91146000D01*
X131105624Y-91141525D01*
X131106829Y-91140135D01*
X131108500Y-91132452D01*
X131108500Y-91127885D01*
X131616500Y-91127885D01*
X131620975Y-91143124D01*
X131622365Y-91144329D01*
X131630048Y-91146000D01*
X132514884Y-91146000D01*
X132530123Y-91141525D01*
X132531328Y-91140135D01*
X132532999Y-91132452D01*
X132532999Y-90252905D01*
X132532662Y-90246386D01*
X132522743Y-90150794D01*
X132519851Y-90137400D01*
X132468412Y-89983216D01*
X132462239Y-89970038D01*
X132376937Y-89832193D01*
X132367901Y-89820792D01*
X132253171Y-89706261D01*
X132241760Y-89697249D01*
X132103757Y-89612184D01*
X132090576Y-89606037D01*
X131936290Y-89554862D01*
X131922914Y-89551995D01*
X131828562Y-89542328D01*
X131822145Y-89542000D01*
X131634615Y-89542000D01*
X131619376Y-89546475D01*
X131618171Y-89547865D01*
X131616500Y-89555548D01*
X131616500Y-91127885D01*
X131108500Y-91127885D01*
X131108500Y-89560116D01*
X131104025Y-89544877D01*
X131102635Y-89543672D01*
X131094952Y-89542001D01*
X130902905Y-89542001D01*
X130896386Y-89542338D01*
X130800794Y-89552257D01*
X130787400Y-89555149D01*
X130626268Y-89608906D01*
X130625399Y-89606301D01*
X130567761Y-89615151D01*
X130502901Y-89586277D01*
X130463949Y-89526920D01*
X130458500Y-89490268D01*
X130458500Y-88418254D01*
X130478502Y-88350133D01*
X130532158Y-88303640D01*
X130602432Y-88293536D01*
X130610912Y-88295053D01*
X130613610Y-88295631D01*
X130620139Y-88297797D01*
X130724600Y-88308500D01*
X132075400Y-88308500D01*
X132078646Y-88308163D01*
X132078650Y-88308163D01*
X132174308Y-88298238D01*
X132174312Y-88298237D01*
X132181166Y-88297526D01*
X132187702Y-88295345D01*
X132187704Y-88295345D01*
X132341998Y-88243868D01*
X132348946Y-88241550D01*
X132499348Y-88148478D01*
X132624305Y-88023303D01*
X132628144Y-88017075D01*
X132628148Y-88017070D01*
X132658159Y-87968383D01*
X132710931Y-87920890D01*
X132765418Y-87908500D01*
X133608520Y-87908500D01*
X133676641Y-87928502D01*
X133697536Y-87945325D01*
X133801697Y-88049305D01*
X133807927Y-88053145D01*
X133807928Y-88053146D01*
X133871151Y-88092117D01*
X133952262Y-88142115D01*
X134052614Y-88175400D01*
X134101639Y-88191661D01*
X134159999Y-88232092D01*
X134187236Y-88297656D01*
X134187972Y-88311254D01*
X134187972Y-92467930D01*
X134186539Y-92486880D01*
X134184393Y-92500988D01*
X134183273Y-92508349D01*
X134183866Y-92515641D01*
X134183866Y-92515644D01*
X134187557Y-92561018D01*
X134187972Y-92571233D01*
X134187972Y-92579293D01*
X134188397Y-92582937D01*
X134191261Y-92607507D01*
X134191694Y-92611882D01*
X134196762Y-92674181D01*
X134197612Y-92684637D01*
X134199868Y-92691601D01*
X134201059Y-92697560D01*
X134202443Y-92703415D01*
X134203290Y-92710681D01*
X134228207Y-92779327D01*
X134229624Y-92783455D01*
X134248977Y-92843193D01*
X134252121Y-92852899D01*
X134255917Y-92859154D01*
X134258423Y-92864628D01*
X134261142Y-92870058D01*
X134263639Y-92876937D01*
X134267652Y-92883057D01*
X134267652Y-92883058D01*
X134303658Y-92937976D01*
X134305995Y-92941680D01*
X134343877Y-93004107D01*
X134347593Y-93008315D01*
X134347594Y-93008316D01*
X134351275Y-93012484D01*
X134351248Y-93012508D01*
X134353901Y-93015500D01*
X134356604Y-93018733D01*
X134360616Y-93024852D01*
X134365928Y-93029884D01*
X134416855Y-93078128D01*
X134419297Y-93080506D01*
X135227702Y-93888911D01*
X135240088Y-93903323D01*
X135248621Y-93914918D01*
X135248626Y-93914923D01*
X135252964Y-93920818D01*
X135258542Y-93925557D01*
X135258545Y-93925560D01*
X135293240Y-93955035D01*
X135300756Y-93961965D01*
X135306452Y-93967661D01*
X135309313Y-93969924D01*
X135309318Y-93969929D01*
X135328738Y-93985293D01*
X135332139Y-93988082D01*
X135387757Y-94035333D01*
X135394270Y-94038659D01*
X135399309Y-94042020D01*
X135404451Y-94045196D01*
X135410188Y-94049734D01*
X135476347Y-94080655D01*
X135480241Y-94082558D01*
X135485067Y-94085022D01*
X135507574Y-94096515D01*
X135559147Y-94145309D01*
X135576153Y-94214239D01*
X135566839Y-94254735D01*
X135565855Y-94256399D01*
X135519438Y-94416169D01*
X135516500Y-94453498D01*
X135516500Y-94886502D01*
X135516693Y-94888950D01*
X135516693Y-94888958D01*
X135517305Y-94896725D01*
X135519438Y-94923831D01*
X135565855Y-95083601D01*
X135569892Y-95090427D01*
X135641751Y-95211933D01*
X135650547Y-95226807D01*
X135653487Y-95229747D01*
X135678820Y-95294266D01*
X135664921Y-95363889D01*
X135652874Y-95382636D01*
X135646910Y-95390324D01*
X135570352Y-95519779D01*
X135564107Y-95534210D01*
X135525061Y-95668605D01*
X135525101Y-95682706D01*
X135532370Y-95686000D01*
X137128000Y-95686000D01*
X137196121Y-95706002D01*
X137242614Y-95759658D01*
X137254000Y-95812000D01*
X137254000Y-96729884D01*
X137258475Y-96745123D01*
X137259865Y-96746328D01*
X137267548Y-96747999D01*
X137888984Y-96747999D01*
X137893920Y-96747805D01*
X137922336Y-96745570D01*
X137934934Y-96743269D01*
X138026819Y-96716574D01*
X138097815Y-96716777D01*
X138157432Y-96755331D01*
X138186740Y-96819995D01*
X138187972Y-96837571D01*
X138187972Y-97134657D01*
X138167970Y-97202778D01*
X138151067Y-97223752D01*
X136620224Y-98754595D01*
X136557912Y-98788621D01*
X136531129Y-98791500D01*
X130865369Y-98791500D01*
X130797248Y-98771498D01*
X130758228Y-98731807D01*
X130723478Y-98675652D01*
X130598303Y-98550695D01*
X130455556Y-98462704D01*
X130453968Y-98461725D01*
X130453966Y-98461724D01*
X130447738Y-98457885D01*
X130366863Y-98431060D01*
X130286389Y-98404368D01*
X130286387Y-98404368D01*
X130279861Y-98402203D01*
X130273025Y-98401503D01*
X130273022Y-98401502D01*
X130229969Y-98397091D01*
X130175400Y-98391500D01*
X128824600Y-98391500D01*
X128821354Y-98391837D01*
X128821350Y-98391837D01*
X128725692Y-98401762D01*
X128725688Y-98401763D01*
X128718834Y-98402474D01*
X128712298Y-98404655D01*
X128712296Y-98404655D01*
X128582310Y-98448022D01*
X128551054Y-98458450D01*
X128400652Y-98551522D01*
X128275695Y-98676697D01*
X128271855Y-98682927D01*
X128271854Y-98682928D01*
X128190106Y-98815548D01*
X128182885Y-98827262D01*
X128180581Y-98834209D01*
X128138628Y-98960695D01*
X128127203Y-98995139D01*
X128116500Y-99099600D01*
X128116500Y-100000400D01*
X128116837Y-100003646D01*
X128116837Y-100003650D01*
X128126012Y-100092072D01*
X128127474Y-100106166D01*
X128129655Y-100112702D01*
X128129655Y-100112704D01*
X128169631Y-100232526D01*
X128183450Y-100273946D01*
X128276522Y-100424348D01*
X128401697Y-100549305D01*
X128407927Y-100553145D01*
X128407928Y-100553146D01*
X128545090Y-100637694D01*
X128552262Y-100642115D01*
X128603790Y-100659206D01*
X128713611Y-100695632D01*
X128713613Y-100695632D01*
X128720139Y-100697797D01*
X128726975Y-100698497D01*
X128726978Y-100698498D01*
X128770031Y-100702909D01*
X128824600Y-100708500D01*
X130175400Y-100708500D01*
X130178646Y-100708163D01*
X130178650Y-100708163D01*
X130274308Y-100698238D01*
X130274312Y-100698237D01*
X130281166Y-100697526D01*
X130287702Y-100695345D01*
X130287704Y-100695345D01*
X130419806Y-100651272D01*
X130448946Y-100641550D01*
X130585423Y-100557095D01*
X138842001Y-100557095D01*
X138842338Y-100563614D01*
X138852257Y-100659206D01*
X138855149Y-100672600D01*
X138906588Y-100826784D01*
X138912761Y-100839962D01*
X138998063Y-100977807D01*
X139007099Y-100989208D01*
X139121829Y-101103739D01*
X139133240Y-101112751D01*
X139271243Y-101197816D01*
X139284424Y-101203963D01*
X139438710Y-101255138D01*
X139452086Y-101258005D01*
X139546438Y-101267672D01*
X139552854Y-101268000D01*
X139665385Y-101268000D01*
X139680624Y-101263525D01*
X139681829Y-101262135D01*
X139683500Y-101254452D01*
X139683500Y-100307115D01*
X139679025Y-100291876D01*
X139677635Y-100290671D01*
X139669952Y-100289000D01*
X138860116Y-100289000D01*
X138844877Y-100293475D01*
X138843672Y-100294865D01*
X138842001Y-100302548D01*
X138842001Y-100557095D01*
X130585423Y-100557095D01*
X130599348Y-100548478D01*
X130724305Y-100423303D01*
X130728144Y-100417075D01*
X130728148Y-100417070D01*
X130758159Y-100368383D01*
X130810931Y-100320890D01*
X130865418Y-100308500D01*
X136830430Y-100308500D01*
X136849380Y-100309933D01*
X136863615Y-100312099D01*
X136863619Y-100312099D01*
X136870849Y-100313199D01*
X136878141Y-100312606D01*
X136878144Y-100312606D01*
X136923518Y-100308915D01*
X136933733Y-100308500D01*
X136941793Y-100308500D01*
X136955083Y-100306951D01*
X136970007Y-100305211D01*
X136974382Y-100304778D01*
X137039839Y-100299454D01*
X137039842Y-100299453D01*
X137047137Y-100298860D01*
X137054101Y-100296604D01*
X137060060Y-100295413D01*
X137065915Y-100294029D01*
X137073181Y-100293182D01*
X137141827Y-100268265D01*
X137145955Y-100266848D01*
X137208436Y-100246607D01*
X137208438Y-100246606D01*
X137215399Y-100244351D01*
X137221654Y-100240555D01*
X137227128Y-100238049D01*
X137232558Y-100235330D01*
X137239437Y-100232833D01*
X137246586Y-100228146D01*
X137300476Y-100192814D01*
X137304180Y-100190477D01*
X137366607Y-100152595D01*
X137374984Y-100145197D01*
X137375008Y-100145224D01*
X137378000Y-100142571D01*
X137381233Y-100139868D01*
X137387352Y-100135856D01*
X137440628Y-100079617D01*
X137443006Y-100077175D01*
X137757296Y-99762885D01*
X138842000Y-99762885D01*
X138846475Y-99778124D01*
X138847865Y-99779329D01*
X138855548Y-99781000D01*
X139665385Y-99781000D01*
X139680624Y-99776525D01*
X139681829Y-99775135D01*
X139683500Y-99767452D01*
X139683500Y-98820116D01*
X139679025Y-98804877D01*
X139677635Y-98803672D01*
X139669952Y-98802001D01*
X139552905Y-98802001D01*
X139546386Y-98802338D01*
X139450794Y-98812257D01*
X139437400Y-98815149D01*
X139283216Y-98866588D01*
X139270038Y-98872761D01*
X139132193Y-98958063D01*
X139120792Y-98967099D01*
X139006261Y-99081829D01*
X138997249Y-99093240D01*
X138912184Y-99231243D01*
X138906037Y-99244424D01*
X138854862Y-99398710D01*
X138851995Y-99412086D01*
X138842328Y-99506438D01*
X138842000Y-99512855D01*
X138842000Y-99762885D01*
X137757296Y-99762885D01*
X139435383Y-98084798D01*
X139449795Y-98072412D01*
X139461390Y-98063879D01*
X139461395Y-98063874D01*
X139467290Y-98059536D01*
X139472029Y-98053958D01*
X139472032Y-98053955D01*
X139501507Y-98019260D01*
X139508437Y-98011744D01*
X139514132Y-98006049D01*
X139531753Y-97983777D01*
X139534544Y-97980372D01*
X139563961Y-97945747D01*
X139623310Y-97906783D01*
X139694304Y-97906092D01*
X139749080Y-97938233D01*
X140179595Y-98368748D01*
X140213621Y-98431060D01*
X140216500Y-98457843D01*
X140216500Y-98733947D01*
X140196498Y-98802068D01*
X140193586Y-98805957D01*
X140191500Y-98815548D01*
X140191500Y-101249884D01*
X140195975Y-101265123D01*
X140208990Y-101276400D01*
X140248338Y-101297886D01*
X140274043Y-101339873D01*
X140275344Y-101339278D01*
X140278394Y-101345940D01*
X140280649Y-101352900D01*
X140284445Y-101359155D01*
X140286951Y-101364629D01*
X140289670Y-101370059D01*
X140292167Y-101376938D01*
X140296180Y-101383058D01*
X140296180Y-101383059D01*
X140332186Y-101437977D01*
X140334523Y-101441681D01*
X140372405Y-101504108D01*
X140376121Y-101508316D01*
X140376122Y-101508317D01*
X140379803Y-101512485D01*
X140379776Y-101512509D01*
X140382429Y-101515501D01*
X140385132Y-101518734D01*
X140389144Y-101524853D01*
X140394456Y-101529885D01*
X140445383Y-101578129D01*
X140447825Y-101580507D01*
X140566229Y-101698911D01*
X140578615Y-101713323D01*
X140587148Y-101724918D01*
X140587153Y-101724923D01*
X140591491Y-101730818D01*
X140597069Y-101735557D01*
X140597072Y-101735560D01*
X140631767Y-101765035D01*
X140639283Y-101771965D01*
X140644978Y-101777660D01*
X140647860Y-101779940D01*
X140667250Y-101795281D01*
X140670654Y-101798072D01*
X140720702Y-101840591D01*
X140726284Y-101845333D01*
X140732800Y-101848661D01*
X140737849Y-101852028D01*
X140742978Y-101855195D01*
X140748715Y-101859734D01*
X140814874Y-101890655D01*
X140818768Y-101892558D01*
X140883807Y-101925769D01*
X140890915Y-101927508D01*
X140896558Y-101929607D01*
X140902321Y-101931524D01*
X140908949Y-101934622D01*
X140916111Y-101936112D01*
X140916112Y-101936112D01*
X140980411Y-101949486D01*
X140984695Y-101950456D01*
X141055609Y-101967808D01*
X141061211Y-101968156D01*
X141061214Y-101968156D01*
X141066763Y-101968500D01*
X141066761Y-101968536D01*
X141070754Y-101968775D01*
X141074946Y-101969149D01*
X141082114Y-101970640D01*
X141159519Y-101968546D01*
X141162927Y-101968500D01*
X143282930Y-101968500D01*
X143301880Y-101969933D01*
X143316115Y-101972099D01*
X143316119Y-101972099D01*
X143323349Y-101973199D01*
X143330641Y-101972606D01*
X143330644Y-101972606D01*
X143376018Y-101968915D01*
X143386233Y-101968500D01*
X143394293Y-101968500D01*
X143411680Y-101966473D01*
X143422507Y-101965211D01*
X143426882Y-101964778D01*
X143492339Y-101959454D01*
X143492342Y-101959453D01*
X143499637Y-101958860D01*
X143506601Y-101956604D01*
X143512560Y-101955413D01*
X143518415Y-101954029D01*
X143525681Y-101953182D01*
X143594327Y-101928265D01*
X143598455Y-101926848D01*
X143660936Y-101906607D01*
X143660938Y-101906606D01*
X143667899Y-101904351D01*
X143674154Y-101900555D01*
X143679628Y-101898049D01*
X143685058Y-101895330D01*
X143691937Y-101892833D01*
X143698058Y-101888820D01*
X143752976Y-101852814D01*
X143756680Y-101850477D01*
X143819107Y-101812595D01*
X143827484Y-101805197D01*
X143827508Y-101805224D01*
X143830500Y-101802571D01*
X143833733Y-101799868D01*
X143839852Y-101795856D01*
X143893128Y-101739617D01*
X143895506Y-101737175D01*
X145352276Y-100280405D01*
X145414588Y-100246379D01*
X145441371Y-100243500D01*
X146150400Y-100243500D01*
X146153646Y-100243163D01*
X146153650Y-100243163D01*
X146249308Y-100233238D01*
X146249312Y-100233237D01*
X146256166Y-100232526D01*
X146262702Y-100230345D01*
X146262704Y-100230345D01*
X146416998Y-100178868D01*
X146423946Y-100176550D01*
X146574348Y-100083478D01*
X146699305Y-99958303D01*
X146705073Y-99948946D01*
X146788275Y-99813968D01*
X146788276Y-99813966D01*
X146792115Y-99807738D01*
X146847797Y-99639861D01*
X146858500Y-99535400D01*
X146858500Y-98634600D01*
X146856674Y-98616998D01*
X146848238Y-98535692D01*
X146848237Y-98535688D01*
X146847526Y-98528834D01*
X146825331Y-98462306D01*
X146793868Y-98368002D01*
X146791550Y-98361054D01*
X146698478Y-98210652D01*
X146573303Y-98085695D01*
X146537911Y-98063879D01*
X146428968Y-97996725D01*
X146428966Y-97996724D01*
X146422738Y-97992885D01*
X146262254Y-97939655D01*
X146261389Y-97939368D01*
X146261387Y-97939368D01*
X146254861Y-97937203D01*
X146248025Y-97936503D01*
X146248022Y-97936502D01*
X146204969Y-97932091D01*
X146150400Y-97926500D01*
X144799600Y-97926500D01*
X144796354Y-97926837D01*
X144796350Y-97926837D01*
X144700692Y-97936762D01*
X144700688Y-97936763D01*
X144693834Y-97937474D01*
X144687298Y-97939655D01*
X144687296Y-97939655D01*
X144565253Y-97980372D01*
X144526054Y-97993450D01*
X144375652Y-98086522D01*
X144250695Y-98211697D01*
X144246855Y-98217927D01*
X144246854Y-98217928D01*
X144163194Y-98353650D01*
X144157885Y-98362262D01*
X144102203Y-98530139D01*
X144091500Y-98634600D01*
X144091500Y-99343629D01*
X144071498Y-99411750D01*
X144054595Y-99432724D01*
X143323595Y-100163724D01*
X143261283Y-100197750D01*
X143190468Y-100192685D01*
X143133632Y-100150138D01*
X143108821Y-100083618D01*
X143108500Y-100074629D01*
X143108500Y-99509600D01*
X143100524Y-99432724D01*
X143098238Y-99410692D01*
X143098237Y-99410688D01*
X143097526Y-99403834D01*
X143091051Y-99384424D01*
X143043868Y-99243002D01*
X143041550Y-99236054D01*
X142948478Y-99085652D01*
X142823303Y-98960695D01*
X142817075Y-98956856D01*
X142817070Y-98956852D01*
X142768383Y-98926841D01*
X142720890Y-98874069D01*
X142708500Y-98819582D01*
X142708500Y-96874500D01*
X142728502Y-96806379D01*
X142782158Y-96759886D01*
X142834500Y-96748500D01*
X142841502Y-96748500D01*
X142843950Y-96748307D01*
X142843958Y-96748307D01*
X142872421Y-96746067D01*
X142872426Y-96746066D01*
X142878831Y-96745562D01*
X142989190Y-96713500D01*
X143030988Y-96701357D01*
X143030990Y-96701356D01*
X143038601Y-96699145D01*
X143067411Y-96682107D01*
X143174980Y-96618491D01*
X143174983Y-96618489D01*
X143181807Y-96614453D01*
X143299453Y-96496807D01*
X143303489Y-96489983D01*
X143303491Y-96489980D01*
X143380108Y-96360427D01*
X143384145Y-96353601D01*
X143386415Y-96345790D01*
X143401528Y-96293769D01*
X143430562Y-96193831D01*
X143431935Y-96176395D01*
X143433307Y-96158958D01*
X143433307Y-96158950D01*
X143433500Y-96156502D01*
X143433500Y-95723498D01*
X143433211Y-95719824D01*
X143431067Y-95692579D01*
X143431066Y-95692574D01*
X143430562Y-95686169D01*
X143428768Y-95679993D01*
X143428767Y-95679989D01*
X143402522Y-95589652D01*
X143402725Y-95518656D01*
X143441279Y-95459040D01*
X143505944Y-95429732D01*
X143523519Y-95428500D01*
X143965500Y-95428500D01*
X144033621Y-95448502D01*
X144080114Y-95502158D01*
X144091500Y-95554500D01*
X144091500Y-96435400D01*
X144091837Y-96438646D01*
X144091837Y-96438650D01*
X144101633Y-96533058D01*
X144102474Y-96541166D01*
X144104655Y-96547702D01*
X144104655Y-96547704D01*
X144128272Y-96618491D01*
X144158450Y-96708946D01*
X144251522Y-96859348D01*
X144376697Y-96984305D01*
X144382927Y-96988145D01*
X144382928Y-96988146D01*
X144520090Y-97072694D01*
X144527262Y-97077115D01*
X144560520Y-97088146D01*
X144688611Y-97130632D01*
X144688613Y-97130632D01*
X144695139Y-97132797D01*
X144701975Y-97133497D01*
X144701978Y-97133498D01*
X144745031Y-97137909D01*
X144799600Y-97143500D01*
X146150400Y-97143500D01*
X146153646Y-97143163D01*
X146153650Y-97143163D01*
X146249308Y-97133238D01*
X146249312Y-97133237D01*
X146256166Y-97132526D01*
X146262702Y-97130345D01*
X146262704Y-97130345D01*
X146394806Y-97086272D01*
X146423946Y-97076550D01*
X146574348Y-96983478D01*
X146699305Y-96858303D01*
X146703144Y-96852075D01*
X146703148Y-96852070D01*
X146733159Y-96803383D01*
X146785931Y-96755890D01*
X146840418Y-96743500D01*
X148048613Y-96743500D01*
X148116734Y-96763502D01*
X148157184Y-96809730D01*
X148158450Y-96808946D01*
X148251522Y-96959348D01*
X148256704Y-96964521D01*
X148275694Y-96983478D01*
X148376697Y-97084305D01*
X148382927Y-97088145D01*
X148382928Y-97088146D01*
X148520090Y-97172694D01*
X148527262Y-97177115D01*
X148604634Y-97202778D01*
X148688611Y-97230632D01*
X148688613Y-97230632D01*
X148695139Y-97232797D01*
X148701975Y-97233497D01*
X148701978Y-97233498D01*
X148745031Y-97237909D01*
X148799600Y-97243500D01*
X150150400Y-97243500D01*
X150153646Y-97243163D01*
X150153650Y-97243163D01*
X150249308Y-97233238D01*
X150249312Y-97233237D01*
X150256166Y-97232526D01*
X150262702Y-97230345D01*
X150262704Y-97230345D01*
X150394806Y-97186272D01*
X150423946Y-97176550D01*
X150574348Y-97083478D01*
X150699305Y-96958303D01*
X150737010Y-96897134D01*
X150788275Y-96813968D01*
X150788276Y-96813966D01*
X150792115Y-96807738D01*
X150828032Y-96699452D01*
X150845632Y-96646389D01*
X150845632Y-96646387D01*
X150847797Y-96639861D01*
X150851016Y-96608449D01*
X150853614Y-96583089D01*
X150858500Y-96535400D01*
X150858500Y-95634600D01*
X150855802Y-95608595D01*
X150848238Y-95535692D01*
X150848237Y-95535688D01*
X150847526Y-95528834D01*
X150844518Y-95519816D01*
X150793868Y-95368002D01*
X150791550Y-95361054D01*
X150698478Y-95210652D01*
X150573303Y-95085695D01*
X150559481Y-95077175D01*
X150428968Y-94996725D01*
X150428966Y-94996724D01*
X150422738Y-94992885D01*
X150262254Y-94939655D01*
X150261389Y-94939368D01*
X150261387Y-94939368D01*
X150254861Y-94937203D01*
X150248025Y-94936503D01*
X150248022Y-94936502D01*
X150204969Y-94932091D01*
X150150400Y-94926500D01*
X148799600Y-94926500D01*
X148796354Y-94926837D01*
X148796350Y-94926837D01*
X148700692Y-94936762D01*
X148700688Y-94936763D01*
X148693834Y-94937474D01*
X148687298Y-94939655D01*
X148687296Y-94939655D01*
X148645663Y-94953545D01*
X148526054Y-94993450D01*
X148375652Y-95086522D01*
X148370479Y-95091704D01*
X148272835Y-95189518D01*
X148210552Y-95223597D01*
X148183662Y-95226500D01*
X146840369Y-95226500D01*
X146772248Y-95206498D01*
X146733228Y-95166807D01*
X146698478Y-95110652D01*
X146678658Y-95090866D01*
X146611397Y-95023723D01*
X146573303Y-94985695D01*
X146567072Y-94981854D01*
X146428968Y-94896725D01*
X146428966Y-94896724D01*
X146422738Y-94892885D01*
X146342995Y-94866436D01*
X146261389Y-94839368D01*
X146261387Y-94839368D01*
X146254861Y-94837203D01*
X146248025Y-94836503D01*
X146248022Y-94836502D01*
X146204969Y-94832091D01*
X146150400Y-94826500D01*
X145891371Y-94826500D01*
X145823250Y-94806498D01*
X145802276Y-94789595D01*
X145193770Y-94181089D01*
X145181384Y-94166677D01*
X145172851Y-94155082D01*
X145172846Y-94155077D01*
X145168508Y-94149182D01*
X145162930Y-94144443D01*
X145162927Y-94144440D01*
X145128232Y-94114965D01*
X145120716Y-94108035D01*
X145115021Y-94102340D01*
X145107658Y-94096515D01*
X145092749Y-94084719D01*
X145089345Y-94081928D01*
X145039297Y-94039409D01*
X145039295Y-94039408D01*
X145033715Y-94034667D01*
X145027199Y-94031339D01*
X145022150Y-94027972D01*
X145017021Y-94024805D01*
X145011284Y-94020266D01*
X144945125Y-93989345D01*
X144941225Y-93987439D01*
X144876192Y-93954231D01*
X144869084Y-93952492D01*
X144863441Y-93950393D01*
X144857678Y-93948476D01*
X144851050Y-93945378D01*
X144779583Y-93930513D01*
X144775299Y-93929543D01*
X144704390Y-93912192D01*
X144698788Y-93911844D01*
X144698785Y-93911844D01*
X144693236Y-93911500D01*
X144693238Y-93911464D01*
X144689245Y-93911225D01*
X144685053Y-93910851D01*
X144677885Y-93909360D01*
X144611675Y-93911151D01*
X144600479Y-93911454D01*
X144597072Y-93911500D01*
X143523519Y-93911500D01*
X143455398Y-93891498D01*
X143408905Y-93837842D01*
X143398801Y-93767568D01*
X143402522Y-93750348D01*
X143428767Y-93660011D01*
X143428768Y-93660007D01*
X143430562Y-93653831D01*
X143433500Y-93616502D01*
X143433500Y-93435400D01*
X148091500Y-93435400D01*
X148091837Y-93438646D01*
X148091837Y-93438650D01*
X148101460Y-93531392D01*
X148102474Y-93541166D01*
X148104655Y-93547702D01*
X148104655Y-93547704D01*
X148130446Y-93625008D01*
X148158450Y-93708946D01*
X148251522Y-93859348D01*
X148256704Y-93864521D01*
X148303719Y-93911454D01*
X148376697Y-93984305D01*
X148382927Y-93988145D01*
X148382928Y-93988146D01*
X148520090Y-94072694D01*
X148527262Y-94077115D01*
X148603313Y-94102340D01*
X148688611Y-94130632D01*
X148688613Y-94130632D01*
X148695139Y-94132797D01*
X148701975Y-94133497D01*
X148701978Y-94133498D01*
X148745031Y-94137909D01*
X148799600Y-94143500D01*
X150150400Y-94143500D01*
X150153646Y-94143163D01*
X150153650Y-94143163D01*
X150249308Y-94133238D01*
X150249312Y-94133237D01*
X150256166Y-94132526D01*
X150262702Y-94130345D01*
X150262704Y-94130345D01*
X150413710Y-94079965D01*
X150423946Y-94076550D01*
X150574348Y-93983478D01*
X150699305Y-93858303D01*
X150709734Y-93841384D01*
X150788275Y-93713968D01*
X150788276Y-93713966D01*
X150792115Y-93707738D01*
X150833171Y-93583958D01*
X150845632Y-93546389D01*
X150845632Y-93546387D01*
X150847797Y-93539861D01*
X150848746Y-93530606D01*
X150855320Y-93466433D01*
X150858500Y-93435400D01*
X150858500Y-92726371D01*
X150878502Y-92658250D01*
X150895405Y-92637276D01*
X151064715Y-92467966D01*
X153214729Y-92467966D01*
X153245037Y-92602446D01*
X153248117Y-92612275D01*
X153328242Y-92809603D01*
X153332885Y-92818794D01*
X153444166Y-93000388D01*
X153450249Y-93008699D01*
X153589685Y-93169667D01*
X153597052Y-93176883D01*
X153760906Y-93312916D01*
X153769353Y-93318831D01*
X153953228Y-93426279D01*
X153962514Y-93430729D01*
X154161473Y-93506703D01*
X154171371Y-93509579D01*
X154274722Y-93530606D01*
X154288771Y-93529410D01*
X154292472Y-93519065D01*
X154292472Y-93518517D01*
X154800472Y-93518517D01*
X154804536Y-93532359D01*
X154817950Y-93534393D01*
X154824656Y-93533534D01*
X154834734Y-93531392D01*
X155038727Y-93470191D01*
X155048314Y-93466433D01*
X155239567Y-93372739D01*
X155248417Y-93367464D01*
X155421800Y-93243792D01*
X155429672Y-93237139D01*
X155580524Y-93086812D01*
X155587202Y-93078965D01*
X155711475Y-92906020D01*
X155716785Y-92897183D01*
X155811142Y-92706267D01*
X155814941Y-92696672D01*
X155876849Y-92492910D01*
X155879027Y-92482837D01*
X155880458Y-92471962D01*
X155878247Y-92457778D01*
X155865089Y-92454000D01*
X154818587Y-92454000D01*
X154803348Y-92458475D01*
X154802143Y-92459865D01*
X154800472Y-92467548D01*
X154800472Y-93518517D01*
X154292472Y-93518517D01*
X154292472Y-92472115D01*
X154287997Y-92456876D01*
X154286607Y-92455671D01*
X154278924Y-92454000D01*
X153229697Y-92454000D01*
X153216166Y-92457973D01*
X153214729Y-92467966D01*
X151064715Y-92467966D01*
X152981806Y-90550875D01*
X153044118Y-90516849D01*
X153114933Y-90521914D01*
X153171769Y-90564461D01*
X153193483Y-90610821D01*
X153193874Y-90612467D01*
X153194727Y-90620316D01*
X153197499Y-90627709D01*
X153197499Y-90627711D01*
X153236793Y-90732526D01*
X153245857Y-90756705D01*
X153333211Y-90873261D01*
X153449767Y-90960615D01*
X153458176Y-90963767D01*
X153458177Y-90963768D01*
X153567432Y-91004726D01*
X153624197Y-91047367D01*
X153648897Y-91113929D01*
X153633690Y-91183278D01*
X153614297Y-91209759D01*
X153491062Y-91338717D01*
X153484576Y-91346727D01*
X153364570Y-91522649D01*
X153359472Y-91531623D01*
X153269810Y-91724783D01*
X153266247Y-91734470D01*
X153210861Y-91934183D01*
X153212384Y-91942607D01*
X153224764Y-91946000D01*
X155864816Y-91946000D01*
X155878347Y-91942027D01*
X155879652Y-91932947D01*
X155837686Y-91765875D01*
X155834366Y-91756124D01*
X155749444Y-91560814D01*
X155744577Y-91551739D01*
X155628898Y-91372926D01*
X155622608Y-91364757D01*
X155478765Y-91206677D01*
X155447713Y-91142831D01*
X155456107Y-91072333D01*
X155501284Y-91017564D01*
X155527728Y-91003895D01*
X155634769Y-90963767D01*
X155643177Y-90960615D01*
X155759733Y-90873261D01*
X155847087Y-90756705D01*
X155898217Y-90620316D01*
X155904972Y-90558134D01*
X155904972Y-88761866D01*
X155898217Y-88699684D01*
X155847087Y-88563295D01*
X155759733Y-88446739D01*
X155643177Y-88359385D01*
X155506788Y-88308255D01*
X155444606Y-88301500D01*
X153648338Y-88301500D01*
X153586156Y-88308255D01*
X153449767Y-88359385D01*
X153333211Y-88446739D01*
X153245857Y-88563295D01*
X153194727Y-88699684D01*
X153187972Y-88761866D01*
X153187972Y-88775500D01*
X153167970Y-88843621D01*
X153114314Y-88890114D01*
X153061972Y-88901500D01*
X152867070Y-88901500D01*
X152848120Y-88900067D01*
X152833885Y-88897901D01*
X152833881Y-88897901D01*
X152826651Y-88896801D01*
X152819359Y-88897394D01*
X152819356Y-88897394D01*
X152773982Y-88901085D01*
X152763767Y-88901500D01*
X152755707Y-88901500D01*
X152742417Y-88903049D01*
X152727493Y-88904789D01*
X152723118Y-88905222D01*
X152657661Y-88910546D01*
X152657658Y-88910547D01*
X152650363Y-88911140D01*
X152643399Y-88913396D01*
X152637440Y-88914587D01*
X152631585Y-88915971D01*
X152624319Y-88916818D01*
X152555673Y-88941735D01*
X152551545Y-88943152D01*
X152489064Y-88963393D01*
X152489062Y-88963394D01*
X152482101Y-88965649D01*
X152475846Y-88969445D01*
X152470372Y-88971951D01*
X152464942Y-88974670D01*
X152458063Y-88977167D01*
X152451943Y-88981180D01*
X152451942Y-88981180D01*
X152397024Y-89017186D01*
X152393320Y-89019523D01*
X152330893Y-89057405D01*
X152322516Y-89064803D01*
X152322492Y-89064776D01*
X152319500Y-89067429D01*
X152316267Y-89070132D01*
X152310148Y-89074144D01*
X152256872Y-89130383D01*
X152254494Y-89132825D01*
X151025610Y-90361709D01*
X150963298Y-90395735D01*
X150892483Y-90390670D01*
X150835647Y-90348123D01*
X150810836Y-90281603D01*
X150816922Y-90232947D01*
X150845632Y-90146389D01*
X150845632Y-90146387D01*
X150847797Y-90139861D01*
X150850426Y-90114208D01*
X150853653Y-90082704D01*
X150858500Y-90035400D01*
X150858500Y-89134600D01*
X150858163Y-89131350D01*
X150848238Y-89035692D01*
X150848237Y-89035688D01*
X150847526Y-89028834D01*
X150830289Y-88977167D01*
X150798926Y-88883163D01*
X150791550Y-88861054D01*
X150698478Y-88710652D01*
X150573303Y-88585695D01*
X150565896Y-88581129D01*
X150428968Y-88496725D01*
X150428966Y-88496724D01*
X150422738Y-88492885D01*
X150329887Y-88462088D01*
X150261389Y-88439368D01*
X150261387Y-88439368D01*
X150254861Y-88437203D01*
X150248025Y-88436503D01*
X150248022Y-88436502D01*
X150204969Y-88432091D01*
X150150400Y-88426500D01*
X148799600Y-88426500D01*
X148796354Y-88426837D01*
X148796350Y-88426837D01*
X148700692Y-88436762D01*
X148700688Y-88436763D01*
X148693834Y-88437474D01*
X148687298Y-88439655D01*
X148687296Y-88439655D01*
X148642738Y-88454521D01*
X148526054Y-88493450D01*
X148375652Y-88586522D01*
X148370479Y-88591704D01*
X148358721Y-88603483D01*
X148250695Y-88711697D01*
X148246855Y-88717927D01*
X148246854Y-88717928D01*
X148169376Y-88843621D01*
X148157885Y-88862262D01*
X148143780Y-88904789D01*
X148118968Y-88979595D01*
X148102203Y-89030139D01*
X148101503Y-89036975D01*
X148101502Y-89036978D01*
X148097694Y-89074144D01*
X148091500Y-89134600D01*
X148091500Y-90035400D01*
X148091837Y-90038646D01*
X148091837Y-90038650D01*
X148099602Y-90113483D01*
X148102474Y-90141166D01*
X148104655Y-90147702D01*
X148104655Y-90147704D01*
X148139724Y-90252817D01*
X148158450Y-90308946D01*
X148251522Y-90459348D01*
X148376697Y-90584305D01*
X148382927Y-90588145D01*
X148382928Y-90588146D01*
X148447121Y-90627715D01*
X148527262Y-90677115D01*
X148609268Y-90704315D01*
X148630167Y-90711247D01*
X148688527Y-90751678D01*
X148715764Y-90817242D01*
X148716500Y-90830840D01*
X148716500Y-91739121D01*
X148696498Y-91807242D01*
X148642842Y-91853735D01*
X148630377Y-91858644D01*
X148533007Y-91891130D01*
X148533005Y-91891131D01*
X148526054Y-91893450D01*
X148375652Y-91986522D01*
X148250695Y-92111697D01*
X148246855Y-92117927D01*
X148246854Y-92117928D01*
X148171375Y-92240378D01*
X148157885Y-92262262D01*
X148137749Y-92322972D01*
X148117563Y-92383831D01*
X148102203Y-92430139D01*
X148101503Y-92436975D01*
X148101502Y-92436978D01*
X148099446Y-92457050D01*
X148091500Y-92534600D01*
X148091500Y-93435400D01*
X143433500Y-93435400D01*
X143433500Y-93183498D01*
X143433307Y-93181042D01*
X143431067Y-93152579D01*
X143431066Y-93152574D01*
X143430562Y-93146169D01*
X143401528Y-93046231D01*
X143386357Y-92994012D01*
X143386356Y-92994010D01*
X143384145Y-92986399D01*
X143299453Y-92843193D01*
X143296771Y-92840511D01*
X143271498Y-92776139D01*
X143285400Y-92706516D01*
X143295572Y-92690688D01*
X143299453Y-92686807D01*
X143384145Y-92543601D01*
X143430562Y-92383831D01*
X143431106Y-92376928D01*
X143433307Y-92348958D01*
X143433307Y-92348950D01*
X143433500Y-92346502D01*
X143433500Y-91913498D01*
X143433307Y-91911042D01*
X143431067Y-91882579D01*
X143431066Y-91882574D01*
X143430562Y-91876169D01*
X143384145Y-91716399D01*
X143359409Y-91674573D01*
X143303491Y-91580020D01*
X143303489Y-91580017D01*
X143299453Y-91573193D01*
X143181807Y-91455547D01*
X143174983Y-91451511D01*
X143174980Y-91451509D01*
X143054889Y-91380488D01*
X143038601Y-91370855D01*
X143030990Y-91368644D01*
X143030988Y-91368643D01*
X142955551Y-91346727D01*
X142878831Y-91324438D01*
X142872426Y-91323934D01*
X142872421Y-91323933D01*
X142843958Y-91321693D01*
X142843950Y-91321693D01*
X142841502Y-91321500D01*
X141058498Y-91321500D01*
X141056050Y-91321693D01*
X141056042Y-91321693D01*
X141027579Y-91323933D01*
X141027574Y-91323934D01*
X141021169Y-91324438D01*
X140944449Y-91346727D01*
X140869012Y-91368643D01*
X140869010Y-91368644D01*
X140861399Y-91370855D01*
X140845111Y-91380488D01*
X140725020Y-91451509D01*
X140725017Y-91451511D01*
X140718193Y-91455547D01*
X140600547Y-91573193D01*
X140596511Y-91580017D01*
X140596509Y-91580020D01*
X140540591Y-91674573D01*
X140515855Y-91716399D01*
X140513644Y-91724010D01*
X140513643Y-91724012D01*
X140480497Y-91838103D01*
X140442284Y-91897938D01*
X140377788Y-91927616D01*
X140307486Y-91917713D01*
X140253697Y-91871373D01*
X140233500Y-91802950D01*
X140233500Y-90838871D01*
X140253502Y-90770750D01*
X140270405Y-90749776D01*
X140634157Y-90386024D01*
X140696469Y-90351998D01*
X140762919Y-90355526D01*
X140838611Y-90380632D01*
X140838613Y-90380632D01*
X140845139Y-90382797D01*
X140851975Y-90383497D01*
X140851978Y-90383498D01*
X140895031Y-90387909D01*
X140949600Y-90393500D01*
X141875400Y-90393500D01*
X141878646Y-90393163D01*
X141878650Y-90393163D01*
X141974308Y-90383238D01*
X141974312Y-90383237D01*
X141981166Y-90382526D01*
X141987702Y-90380345D01*
X141987704Y-90380345D01*
X142141998Y-90328868D01*
X142148946Y-90326550D01*
X142299348Y-90233478D01*
X142424305Y-90108303D01*
X142443082Y-90077841D01*
X142513275Y-89963968D01*
X142513276Y-89963966D01*
X142517115Y-89957738D01*
X142556169Y-89839993D01*
X142570632Y-89796389D01*
X142570632Y-89796387D01*
X142572797Y-89789861D01*
X142583500Y-89685400D01*
X142583500Y-89682095D01*
X143367001Y-89682095D01*
X143367338Y-89688614D01*
X143377257Y-89784206D01*
X143380149Y-89797600D01*
X143431588Y-89951784D01*
X143437761Y-89964962D01*
X143523063Y-90102807D01*
X143532099Y-90114208D01*
X143646829Y-90228739D01*
X143658240Y-90237751D01*
X143796243Y-90322816D01*
X143809424Y-90328963D01*
X143963710Y-90380138D01*
X143977086Y-90383005D01*
X144071438Y-90392672D01*
X144077854Y-90393000D01*
X144265385Y-90393000D01*
X144280624Y-90388525D01*
X144281829Y-90387135D01*
X144283500Y-90379452D01*
X144283500Y-90374884D01*
X144791500Y-90374884D01*
X144795975Y-90390123D01*
X144797365Y-90391328D01*
X144805048Y-90392999D01*
X144997095Y-90392999D01*
X145003614Y-90392662D01*
X145099206Y-90382743D01*
X145112600Y-90379851D01*
X145266784Y-90328412D01*
X145279962Y-90322239D01*
X145417807Y-90236937D01*
X145429208Y-90227901D01*
X145543739Y-90113171D01*
X145552751Y-90101760D01*
X145637816Y-89963757D01*
X145643963Y-89950576D01*
X145695138Y-89796290D01*
X145698005Y-89782914D01*
X145707672Y-89688562D01*
X145708000Y-89682146D01*
X145708000Y-88807115D01*
X145703525Y-88791876D01*
X145702135Y-88790671D01*
X145694452Y-88789000D01*
X144809615Y-88789000D01*
X144794376Y-88793475D01*
X144793171Y-88794865D01*
X144791500Y-88802548D01*
X144791500Y-90374884D01*
X144283500Y-90374884D01*
X144283500Y-88807115D01*
X144279025Y-88791876D01*
X144277635Y-88790671D01*
X144269952Y-88789000D01*
X143385116Y-88789000D01*
X143369877Y-88793475D01*
X143368672Y-88794865D01*
X143367001Y-88802548D01*
X143367001Y-89682095D01*
X142583500Y-89682095D01*
X142583500Y-88262885D01*
X143367000Y-88262885D01*
X143371475Y-88278124D01*
X143372865Y-88279329D01*
X143380548Y-88281000D01*
X144265385Y-88281000D01*
X144280624Y-88276525D01*
X144281829Y-88275135D01*
X144283500Y-88267452D01*
X144283500Y-88262885D01*
X144791500Y-88262885D01*
X144795975Y-88278124D01*
X144797365Y-88279329D01*
X144805048Y-88281000D01*
X145689884Y-88281000D01*
X145705123Y-88276525D01*
X145706328Y-88275135D01*
X145707999Y-88267452D01*
X145707999Y-87387905D01*
X145707662Y-87381386D01*
X145697743Y-87285794D01*
X145694851Y-87272400D01*
X145643412Y-87118216D01*
X145637239Y-87105038D01*
X145551937Y-86967193D01*
X145542901Y-86955792D01*
X145519163Y-86932095D01*
X148092001Y-86932095D01*
X148092338Y-86938614D01*
X148102257Y-87034206D01*
X148105149Y-87047600D01*
X148156588Y-87201784D01*
X148162761Y-87214962D01*
X148248063Y-87352807D01*
X148257099Y-87364208D01*
X148371829Y-87478739D01*
X148383240Y-87487751D01*
X148521243Y-87572816D01*
X148534424Y-87578963D01*
X148688710Y-87630138D01*
X148702086Y-87633005D01*
X148796438Y-87642672D01*
X148802854Y-87643000D01*
X149202885Y-87643000D01*
X149218124Y-87638525D01*
X149219329Y-87637135D01*
X149221000Y-87629452D01*
X149221000Y-87624884D01*
X149729000Y-87624884D01*
X149733475Y-87640123D01*
X149734865Y-87641328D01*
X149742548Y-87642999D01*
X150147095Y-87642999D01*
X150153614Y-87642662D01*
X150249206Y-87632743D01*
X150262600Y-87629851D01*
X150416784Y-87578412D01*
X150429962Y-87572239D01*
X150567807Y-87486937D01*
X150579208Y-87477901D01*
X150693739Y-87363171D01*
X150702751Y-87351760D01*
X150787816Y-87213757D01*
X150793963Y-87200576D01*
X150845138Y-87046290D01*
X150848005Y-87032914D01*
X150857672Y-86938562D01*
X150858000Y-86932146D01*
X150858000Y-86757115D01*
X150853525Y-86741876D01*
X150852135Y-86740671D01*
X150844452Y-86739000D01*
X149747115Y-86739000D01*
X149731876Y-86743475D01*
X149730671Y-86744865D01*
X149729000Y-86752548D01*
X149729000Y-87624884D01*
X149221000Y-87624884D01*
X149221000Y-86757115D01*
X149216525Y-86741876D01*
X149215135Y-86740671D01*
X149207452Y-86739000D01*
X148110116Y-86739000D01*
X148094877Y-86743475D01*
X148093672Y-86744865D01*
X148092001Y-86752548D01*
X148092001Y-86932095D01*
X145519163Y-86932095D01*
X145428171Y-86841261D01*
X145416760Y-86832249D01*
X145278757Y-86747184D01*
X145265576Y-86741037D01*
X145111290Y-86689862D01*
X145097914Y-86686995D01*
X145003562Y-86677328D01*
X144997145Y-86677000D01*
X144809615Y-86677000D01*
X144794376Y-86681475D01*
X144793171Y-86682865D01*
X144791500Y-86690548D01*
X144791500Y-88262885D01*
X144283500Y-88262885D01*
X144283500Y-86695116D01*
X144279025Y-86679877D01*
X144277635Y-86678672D01*
X144269952Y-86677001D01*
X144077905Y-86677001D01*
X144071386Y-86677338D01*
X143975794Y-86687257D01*
X143962400Y-86690149D01*
X143808216Y-86741588D01*
X143795038Y-86747761D01*
X143657193Y-86833063D01*
X143645792Y-86842099D01*
X143531261Y-86956829D01*
X143522249Y-86968240D01*
X143437184Y-87106243D01*
X143431037Y-87119424D01*
X143379862Y-87273710D01*
X143376995Y-87287086D01*
X143367328Y-87381438D01*
X143367000Y-87387855D01*
X143367000Y-88262885D01*
X142583500Y-88262885D01*
X142583500Y-87384600D01*
X142581277Y-87363171D01*
X142573238Y-87285692D01*
X142573237Y-87285688D01*
X142572526Y-87278834D01*
X142565906Y-87258990D01*
X142518868Y-87118002D01*
X142516550Y-87111054D01*
X142423478Y-86960652D01*
X142298303Y-86835695D01*
X142275031Y-86821350D01*
X142153968Y-86746725D01*
X142153966Y-86746724D01*
X142147738Y-86742885D01*
X142059479Y-86713611D01*
X141986389Y-86689368D01*
X141986387Y-86689368D01*
X141979861Y-86687203D01*
X141973025Y-86686503D01*
X141973022Y-86686502D01*
X141929969Y-86682091D01*
X141875400Y-86676500D01*
X140949600Y-86676500D01*
X140946354Y-86676837D01*
X140946350Y-86676837D01*
X140850693Y-86686762D01*
X140850690Y-86686763D01*
X140843834Y-86687474D01*
X140763124Y-86714401D01*
X140692176Y-86716986D01*
X140634154Y-86683973D01*
X140163066Y-86212885D01*
X148092000Y-86212885D01*
X148096475Y-86228124D01*
X148097865Y-86229329D01*
X148105548Y-86231000D01*
X149202885Y-86231000D01*
X149218124Y-86226525D01*
X149219329Y-86225135D01*
X149221000Y-86217452D01*
X149221000Y-86212885D01*
X149729000Y-86212885D01*
X149733475Y-86228124D01*
X149734865Y-86229329D01*
X149742548Y-86231000D01*
X150839884Y-86231000D01*
X150855123Y-86226525D01*
X150856328Y-86225135D01*
X150857999Y-86217452D01*
X150857999Y-86037905D01*
X150857662Y-86031386D01*
X150847743Y-85935794D01*
X150844851Y-85922400D01*
X150793412Y-85768216D01*
X150787239Y-85755038D01*
X150701937Y-85617193D01*
X150692901Y-85605792D01*
X150578171Y-85491261D01*
X150566760Y-85482249D01*
X150428757Y-85397184D01*
X150415576Y-85391037D01*
X150261290Y-85339862D01*
X150247914Y-85336995D01*
X150153562Y-85327328D01*
X150147145Y-85327000D01*
X149747115Y-85327000D01*
X149731876Y-85331475D01*
X149730671Y-85332865D01*
X149729000Y-85340548D01*
X149729000Y-86212885D01*
X149221000Y-86212885D01*
X149221000Y-85345116D01*
X149216525Y-85329877D01*
X149215135Y-85328672D01*
X149207452Y-85327001D01*
X148802905Y-85327001D01*
X148796386Y-85327338D01*
X148700794Y-85337257D01*
X148687400Y-85340149D01*
X148533216Y-85391588D01*
X148520038Y-85397761D01*
X148382193Y-85483063D01*
X148370792Y-85492099D01*
X148256261Y-85606829D01*
X148247249Y-85618240D01*
X148162184Y-85756243D01*
X148156037Y-85769424D01*
X148104862Y-85923710D01*
X148101995Y-85937086D01*
X148092328Y-86031438D01*
X148092000Y-86037855D01*
X148092000Y-86212885D01*
X140163066Y-86212885D01*
X139574276Y-85624095D01*
X139540250Y-85561783D01*
X139545315Y-85490968D01*
X139574276Y-85445905D01*
X140689776Y-84330405D01*
X140752088Y-84296379D01*
X140778871Y-84293500D01*
X141449991Y-84293500D01*
X141518112Y-84313502D01*
X141546902Y-84340595D01*
X141547487Y-84340088D01*
X141693750Y-84508938D01*
X141865626Y-84651632D01*
X142058500Y-84764338D01*
X142267192Y-84844030D01*
X142272260Y-84845061D01*
X142272263Y-84845062D01*
X142337773Y-84858390D01*
X142486097Y-84888567D01*
X142491272Y-84888757D01*
X142491274Y-84888757D01*
X142704173Y-84896564D01*
X142704177Y-84896564D01*
X142709337Y-84896753D01*
X142714457Y-84896097D01*
X142714459Y-84896097D01*
X142925788Y-84869025D01*
X142925789Y-84869025D01*
X142930916Y-84868368D01*
X142935866Y-84866883D01*
X143139929Y-84805661D01*
X143139934Y-84805659D01*
X143144884Y-84804174D01*
X143345494Y-84705896D01*
X143527360Y-84576173D01*
X143594831Y-84508938D01*
X143635979Y-84467933D01*
X143698351Y-84434017D01*
X143769158Y-84439205D01*
X143825919Y-84481851D01*
X143842901Y-84512954D01*
X143884176Y-84623054D01*
X143892714Y-84638649D01*
X143969215Y-84740724D01*
X143981776Y-84753285D01*
X144083851Y-84829786D01*
X144099446Y-84838324D01*
X144219894Y-84883478D01*
X144235149Y-84887105D01*
X144286014Y-84892631D01*
X144292828Y-84893000D01*
X144915385Y-84893000D01*
X144930624Y-84888525D01*
X144931829Y-84887135D01*
X144933500Y-84879452D01*
X144933500Y-84874884D01*
X145441500Y-84874884D01*
X145445975Y-84890123D01*
X145447365Y-84891328D01*
X145455048Y-84892999D01*
X146082169Y-84892999D01*
X146088990Y-84892629D01*
X146139852Y-84887105D01*
X146155104Y-84883479D01*
X146275554Y-84838324D01*
X146291149Y-84829786D01*
X146393224Y-84753285D01*
X146405785Y-84740724D01*
X146482286Y-84638649D01*
X146490824Y-84623054D01*
X146535978Y-84502606D01*
X146539605Y-84487351D01*
X146545131Y-84436486D01*
X146545500Y-84429672D01*
X146545500Y-83807115D01*
X146541025Y-83791876D01*
X146539635Y-83790671D01*
X146531952Y-83789000D01*
X145459615Y-83789000D01*
X145444376Y-83793475D01*
X145443171Y-83794865D01*
X145441500Y-83802548D01*
X145441500Y-84874884D01*
X144933500Y-84874884D01*
X144933500Y-83262885D01*
X145441500Y-83262885D01*
X145445975Y-83278124D01*
X145447365Y-83279329D01*
X145455048Y-83281000D01*
X146527384Y-83281000D01*
X146542623Y-83276525D01*
X146543828Y-83275135D01*
X146545499Y-83267452D01*
X146545499Y-82640331D01*
X146545129Y-82633510D01*
X146539605Y-82582648D01*
X146535979Y-82567396D01*
X146490824Y-82446946D01*
X146482286Y-82431351D01*
X146405785Y-82329276D01*
X146393224Y-82316715D01*
X146291149Y-82240214D01*
X146275554Y-82231676D01*
X146155106Y-82186522D01*
X146139851Y-82182895D01*
X146088986Y-82177369D01*
X146082172Y-82177000D01*
X145459615Y-82177000D01*
X145444376Y-82181475D01*
X145443171Y-82182865D01*
X145441500Y-82190548D01*
X145441500Y-83262885D01*
X144933500Y-83262885D01*
X144933500Y-82195116D01*
X144929025Y-82179877D01*
X144927635Y-82178672D01*
X144919952Y-82177001D01*
X144292831Y-82177001D01*
X144286010Y-82177371D01*
X144235148Y-82182895D01*
X144219896Y-82186521D01*
X144099446Y-82231676D01*
X144083851Y-82240214D01*
X143981776Y-82316715D01*
X143969215Y-82329276D01*
X143892714Y-82431351D01*
X143884176Y-82446946D01*
X143842797Y-82557322D01*
X143800155Y-82614087D01*
X143733593Y-82638786D01*
X143664244Y-82623578D01*
X143631621Y-82597891D01*
X143580651Y-82541876D01*
X143580648Y-82541873D01*
X143577170Y-82538051D01*
X143573119Y-82534852D01*
X143573115Y-82534848D01*
X143405914Y-82402800D01*
X143405910Y-82402798D01*
X143401859Y-82399598D01*
X143206289Y-82291638D01*
X143201420Y-82289914D01*
X143201416Y-82289912D01*
X143000587Y-82218795D01*
X143000583Y-82218794D01*
X142995712Y-82217069D01*
X142990619Y-82216162D01*
X142990616Y-82216161D01*
X142780873Y-82178800D01*
X142780867Y-82178799D01*
X142775784Y-82177894D01*
X142701952Y-82176992D01*
X142557581Y-82175228D01*
X142557579Y-82175228D01*
X142552411Y-82175165D01*
X142331591Y-82208955D01*
X142119256Y-82278357D01*
X141921107Y-82381507D01*
X141916974Y-82384610D01*
X141916971Y-82384612D01*
X141852205Y-82433240D01*
X141742465Y-82515635D01*
X141588129Y-82677138D01*
X141557863Y-82721507D01*
X141502955Y-82766507D01*
X141453777Y-82776500D01*
X140479569Y-82776500D01*
X140460621Y-82775067D01*
X140453280Y-82773950D01*
X140446383Y-82772901D01*
X140446381Y-82772901D01*
X140439151Y-82771801D01*
X140431859Y-82772394D01*
X140431856Y-82772394D01*
X140386482Y-82776085D01*
X140376267Y-82776500D01*
X140368207Y-82776500D01*
X140354917Y-82778049D01*
X140339993Y-82779789D01*
X140335618Y-82780222D01*
X140270161Y-82785546D01*
X140270158Y-82785547D01*
X140262863Y-82786140D01*
X140255899Y-82788396D01*
X140249940Y-82789587D01*
X140244085Y-82790971D01*
X140236819Y-82791818D01*
X140168173Y-82816735D01*
X140164045Y-82818152D01*
X140101564Y-82838393D01*
X140101562Y-82838394D01*
X140094601Y-82840649D01*
X140088346Y-82844445D01*
X140082872Y-82846951D01*
X140077442Y-82849670D01*
X140070563Y-82852167D01*
X140064443Y-82856180D01*
X140064442Y-82856180D01*
X140009524Y-82892186D01*
X140005820Y-82894523D01*
X139943393Y-82932405D01*
X139935016Y-82939803D01*
X139934992Y-82939776D01*
X139932000Y-82942429D01*
X139928767Y-82945132D01*
X139922648Y-82949144D01*
X139869372Y-83005383D01*
X139866994Y-83007825D01*
X138170224Y-84704595D01*
X138107912Y-84738621D01*
X138081129Y-84741500D01*
X136368323Y-84741500D01*
X136300202Y-84721498D01*
X136253709Y-84667842D01*
X136243605Y-84597568D01*
X136248730Y-84575833D01*
X136270137Y-84511293D01*
X136273005Y-84497914D01*
X136282672Y-84403562D01*
X136283000Y-84397146D01*
X136283000Y-84222115D01*
X136278525Y-84206876D01*
X136277135Y-84205671D01*
X136269452Y-84204000D01*
X133535116Y-84204000D01*
X133519877Y-84208475D01*
X133518672Y-84209865D01*
X133517001Y-84217548D01*
X133517001Y-84397095D01*
X133517338Y-84403614D01*
X133527257Y-84499206D01*
X133530149Y-84512600D01*
X133551175Y-84575624D01*
X133553759Y-84646574D01*
X133517575Y-84707658D01*
X133454111Y-84739482D01*
X133431651Y-84741500D01*
X132898367Y-84741500D01*
X132830246Y-84721498D01*
X132783753Y-84667842D01*
X132773023Y-84602658D01*
X132782625Y-84508938D01*
X132783500Y-84500400D01*
X132783500Y-83677885D01*
X133517000Y-83677885D01*
X133521475Y-83693124D01*
X133522865Y-83694329D01*
X133530548Y-83696000D01*
X134627885Y-83696000D01*
X134643124Y-83691525D01*
X134644329Y-83690135D01*
X134646000Y-83682452D01*
X134646000Y-83677885D01*
X135154000Y-83677885D01*
X135158475Y-83693124D01*
X135159865Y-83694329D01*
X135167548Y-83696000D01*
X136264884Y-83696000D01*
X136280123Y-83691525D01*
X136281328Y-83690135D01*
X136282999Y-83682452D01*
X136282999Y-83502905D01*
X136282662Y-83496386D01*
X136272743Y-83400794D01*
X136269851Y-83387400D01*
X136218412Y-83233216D01*
X136212239Y-83220038D01*
X136126937Y-83082193D01*
X136117901Y-83070792D01*
X136003171Y-82956261D01*
X135991760Y-82947249D01*
X135853757Y-82862184D01*
X135840576Y-82856037D01*
X135686290Y-82804862D01*
X135672914Y-82801995D01*
X135578562Y-82792328D01*
X135572145Y-82792000D01*
X135172115Y-82792000D01*
X135156876Y-82796475D01*
X135155671Y-82797865D01*
X135154000Y-82805548D01*
X135154000Y-83677885D01*
X134646000Y-83677885D01*
X134646000Y-82810116D01*
X134641525Y-82794877D01*
X134640135Y-82793672D01*
X134632452Y-82792001D01*
X134227905Y-82792001D01*
X134221386Y-82792338D01*
X134125794Y-82802257D01*
X134112400Y-82805149D01*
X133958216Y-82856588D01*
X133945038Y-82862761D01*
X133807193Y-82948063D01*
X133795792Y-82957099D01*
X133681261Y-83071829D01*
X133672249Y-83083240D01*
X133587184Y-83221243D01*
X133581037Y-83234424D01*
X133529862Y-83388710D01*
X133526995Y-83402086D01*
X133517328Y-83496438D01*
X133517000Y-83502855D01*
X133517000Y-83677885D01*
X132783500Y-83677885D01*
X132783500Y-83599600D01*
X132777917Y-83545792D01*
X132773238Y-83500692D01*
X132773237Y-83500688D01*
X132772526Y-83493834D01*
X132716550Y-83326054D01*
X132623478Y-83175652D01*
X132498303Y-83050695D01*
X132492072Y-83046854D01*
X132353968Y-82961725D01*
X132353966Y-82961724D01*
X132347738Y-82957885D01*
X132187254Y-82904655D01*
X132186389Y-82904368D01*
X132186387Y-82904368D01*
X132179861Y-82902203D01*
X132173025Y-82901503D01*
X132173022Y-82901502D01*
X132129969Y-82897091D01*
X132075400Y-82891500D01*
X130724600Y-82891500D01*
X130721354Y-82891837D01*
X130721350Y-82891837D01*
X130625692Y-82901762D01*
X130625688Y-82901763D01*
X130618834Y-82902474D01*
X130612298Y-82904655D01*
X130612296Y-82904655D01*
X130506946Y-82939803D01*
X130451054Y-82958450D01*
X130300652Y-83051522D01*
X130175695Y-83176697D01*
X130171856Y-83182925D01*
X130171852Y-83182930D01*
X130141841Y-83231617D01*
X130089069Y-83279110D01*
X130034582Y-83291500D01*
X129217070Y-83291500D01*
X129198120Y-83290067D01*
X129183885Y-83287901D01*
X129183881Y-83287901D01*
X129176651Y-83286801D01*
X129169359Y-83287394D01*
X129169356Y-83287394D01*
X129123982Y-83291085D01*
X129113767Y-83291500D01*
X129105707Y-83291500D01*
X129102073Y-83291924D01*
X129102067Y-83291924D01*
X129089042Y-83293443D01*
X129077480Y-83294791D01*
X129073132Y-83295221D01*
X129000364Y-83301140D01*
X128993403Y-83303395D01*
X128987463Y-83304582D01*
X128981588Y-83305971D01*
X128974319Y-83306818D01*
X128905670Y-83331736D01*
X128901542Y-83333153D01*
X128839064Y-83353393D01*
X128839062Y-83353394D01*
X128832101Y-83355649D01*
X128825846Y-83359445D01*
X128820372Y-83361951D01*
X128814942Y-83364670D01*
X128808063Y-83367167D01*
X128801943Y-83371180D01*
X128801942Y-83371180D01*
X128747024Y-83407186D01*
X128743320Y-83409523D01*
X128680893Y-83447405D01*
X128672516Y-83454803D01*
X128672492Y-83454776D01*
X128669500Y-83457429D01*
X128666267Y-83460132D01*
X128660148Y-83464144D01*
X128655116Y-83469456D01*
X128606872Y-83520383D01*
X128604494Y-83522825D01*
X128072626Y-84054693D01*
X128010314Y-84088719D01*
X127939499Y-84083654D01*
X127882663Y-84041107D01*
X127858592Y-83974576D01*
X127857999Y-83974638D01*
X127857751Y-83972252D01*
X127857699Y-83972107D01*
X127857662Y-83971388D01*
X127847743Y-83875794D01*
X127844851Y-83862400D01*
X127793412Y-83708216D01*
X127787239Y-83695038D01*
X127701937Y-83557193D01*
X127692901Y-83545792D01*
X127578171Y-83431261D01*
X127566760Y-83422249D01*
X127428757Y-83337184D01*
X127415576Y-83331037D01*
X127261290Y-83279862D01*
X127247914Y-83276995D01*
X127153562Y-83267328D01*
X127147145Y-83267000D01*
X126272115Y-83267000D01*
X126256876Y-83271475D01*
X126255671Y-83272865D01*
X126254000Y-83280548D01*
X126254000Y-85589884D01*
X126258475Y-85605123D01*
X126259865Y-85606328D01*
X126267548Y-85607999D01*
X127147095Y-85607999D01*
X127153614Y-85607662D01*
X127249206Y-85597743D01*
X127262600Y-85594851D01*
X127416784Y-85543412D01*
X127429958Y-85537240D01*
X127549196Y-85463453D01*
X127617648Y-85444615D01*
X127685418Y-85465776D01*
X127730989Y-85520217D01*
X127741500Y-85570597D01*
X127741500Y-86333629D01*
X127721498Y-86401750D01*
X127704595Y-86422724D01*
X127645784Y-86481535D01*
X127583472Y-86515561D01*
X127512657Y-86510496D01*
X127490575Y-86499700D01*
X127461105Y-86481535D01*
X127428970Y-86461726D01*
X127428967Y-86461725D01*
X127422738Y-86457885D01*
X127314098Y-86421851D01*
X127261389Y-86404368D01*
X127261387Y-86404368D01*
X127254861Y-86402203D01*
X127248025Y-86401503D01*
X127248022Y-86401502D01*
X127204969Y-86397091D01*
X127150400Y-86391500D01*
X124849600Y-86391500D01*
X124846354Y-86391837D01*
X124846350Y-86391837D01*
X124750692Y-86401762D01*
X124750688Y-86401763D01*
X124743834Y-86402474D01*
X124737298Y-86404655D01*
X124737296Y-86404655D01*
X124611435Y-86446646D01*
X124576054Y-86458450D01*
X124425652Y-86551522D01*
X124300695Y-86676697D01*
X124296854Y-86682928D01*
X124292317Y-86688673D01*
X124290987Y-86687623D01*
X124244893Y-86729108D01*
X124190403Y-86741500D01*
X123795879Y-86741500D01*
X123727758Y-86721498D01*
X123681265Y-86667842D01*
X123676356Y-86655377D01*
X123643870Y-86558007D01*
X123643868Y-86558002D01*
X123641550Y-86551054D01*
X123548478Y-86400652D01*
X123423303Y-86275695D01*
X123417069Y-86271852D01*
X123278968Y-86186725D01*
X123278966Y-86186724D01*
X123272738Y-86182885D01*
X123127256Y-86134631D01*
X123111389Y-86129368D01*
X123111387Y-86129368D01*
X123104861Y-86127203D01*
X123098025Y-86126503D01*
X123098022Y-86126502D01*
X123054969Y-86122091D01*
X123000400Y-86116500D01*
X122099600Y-86116500D01*
X122096354Y-86116837D01*
X122096350Y-86116837D01*
X122000692Y-86126762D01*
X122000688Y-86126763D01*
X121993834Y-86127474D01*
X121987298Y-86129655D01*
X121987296Y-86129655D01*
X121865712Y-86170219D01*
X121826054Y-86183450D01*
X121675652Y-86276522D01*
X121550695Y-86401697D01*
X121546855Y-86407927D01*
X121546854Y-86407928D01*
X121479874Y-86516590D01*
X121457885Y-86552262D01*
X121431436Y-86632005D01*
X121413274Y-86686762D01*
X121402203Y-86720139D01*
X121401503Y-86726975D01*
X121401502Y-86726978D01*
X121399479Y-86746725D01*
X121391500Y-86824600D01*
X121391500Y-87533629D01*
X121371498Y-87601750D01*
X121354595Y-87622724D01*
X120823595Y-88153724D01*
X120761283Y-88187750D01*
X120690468Y-88182685D01*
X120633632Y-88140138D01*
X120608821Y-88073618D01*
X120608500Y-88064629D01*
X120608500Y-86824600D01*
X120601024Y-86752548D01*
X120598238Y-86725692D01*
X120598237Y-86725688D01*
X120597526Y-86718834D01*
X120587792Y-86689656D01*
X120543868Y-86558002D01*
X120541550Y-86551054D01*
X120448478Y-86400652D01*
X120323303Y-86275695D01*
X120317075Y-86271856D01*
X120317070Y-86271852D01*
X120268383Y-86241841D01*
X120220890Y-86189069D01*
X120208500Y-86134582D01*
X120208500Y-85840369D01*
X120228502Y-85772248D01*
X120268193Y-85733228D01*
X120324348Y-85698478D01*
X120449305Y-85573303D01*
X120471535Y-85537240D01*
X120538275Y-85428968D01*
X120538276Y-85428966D01*
X120542115Y-85422738D01*
X120597797Y-85254861D01*
X120608500Y-85150400D01*
X120608500Y-85147095D01*
X121392001Y-85147095D01*
X121392338Y-85153614D01*
X121402257Y-85249206D01*
X121405149Y-85262600D01*
X121456588Y-85416784D01*
X121462761Y-85429962D01*
X121548063Y-85567807D01*
X121557099Y-85579208D01*
X121671829Y-85693739D01*
X121683240Y-85702751D01*
X121821243Y-85787816D01*
X121834424Y-85793963D01*
X121988710Y-85845138D01*
X122002086Y-85848005D01*
X122096438Y-85857672D01*
X122102854Y-85858000D01*
X122290385Y-85858000D01*
X122305624Y-85853525D01*
X122306829Y-85852135D01*
X122308500Y-85844452D01*
X122308500Y-85839884D01*
X122816500Y-85839884D01*
X122820975Y-85855123D01*
X122822365Y-85856328D01*
X122830048Y-85857999D01*
X123022095Y-85857999D01*
X123028614Y-85857662D01*
X123124206Y-85847743D01*
X123137600Y-85844851D01*
X123291784Y-85793412D01*
X123304962Y-85787239D01*
X123442807Y-85701937D01*
X123454208Y-85692901D01*
X123568739Y-85578171D01*
X123577751Y-85566760D01*
X123662816Y-85428757D01*
X123668963Y-85415576D01*
X123720138Y-85261290D01*
X123723005Y-85247914D01*
X123732672Y-85153562D01*
X123733000Y-85147146D01*
X123733000Y-84897095D01*
X124142001Y-84897095D01*
X124142338Y-84903614D01*
X124152257Y-84999206D01*
X124155149Y-85012600D01*
X124206588Y-85166784D01*
X124212761Y-85179962D01*
X124298063Y-85317807D01*
X124307099Y-85329208D01*
X124421829Y-85443739D01*
X124433240Y-85452751D01*
X124571243Y-85537816D01*
X124584424Y-85543963D01*
X124738710Y-85595138D01*
X124752086Y-85598005D01*
X124846438Y-85607672D01*
X124852854Y-85608000D01*
X125727885Y-85608000D01*
X125743124Y-85603525D01*
X125744329Y-85602135D01*
X125746000Y-85594452D01*
X125746000Y-84709615D01*
X125741525Y-84694376D01*
X125740135Y-84693171D01*
X125732452Y-84691500D01*
X124160116Y-84691500D01*
X124144877Y-84695975D01*
X124143672Y-84697365D01*
X124142001Y-84705048D01*
X124142001Y-84897095D01*
X123733000Y-84897095D01*
X123733000Y-84272115D01*
X123728525Y-84256876D01*
X123727135Y-84255671D01*
X123719452Y-84254000D01*
X122834615Y-84254000D01*
X122819376Y-84258475D01*
X122818171Y-84259865D01*
X122816500Y-84267548D01*
X122816500Y-85839884D01*
X122308500Y-85839884D01*
X122308500Y-84272115D01*
X122304025Y-84256876D01*
X122302635Y-84255671D01*
X122294952Y-84254000D01*
X121410116Y-84254000D01*
X121394877Y-84258475D01*
X121393672Y-84259865D01*
X121392001Y-84267548D01*
X121392001Y-85147095D01*
X120608500Y-85147095D01*
X120608500Y-84165385D01*
X124142000Y-84165385D01*
X124146475Y-84180624D01*
X124147865Y-84181829D01*
X124155548Y-84183500D01*
X125727885Y-84183500D01*
X125743124Y-84179025D01*
X125744329Y-84177635D01*
X125746000Y-84169952D01*
X125746000Y-83285116D01*
X125741525Y-83269877D01*
X125740135Y-83268672D01*
X125732452Y-83267001D01*
X124852905Y-83267001D01*
X124846386Y-83267338D01*
X124750794Y-83277257D01*
X124737400Y-83280149D01*
X124583216Y-83331588D01*
X124570038Y-83337761D01*
X124432193Y-83423063D01*
X124420792Y-83432099D01*
X124306261Y-83546829D01*
X124297249Y-83558240D01*
X124212184Y-83696243D01*
X124206037Y-83709424D01*
X124154862Y-83863710D01*
X124151995Y-83877086D01*
X124142328Y-83971438D01*
X124142000Y-83977855D01*
X124142000Y-84165385D01*
X120608500Y-84165385D01*
X120608500Y-83727885D01*
X121392000Y-83727885D01*
X121396475Y-83743124D01*
X121397865Y-83744329D01*
X121405548Y-83746000D01*
X122290385Y-83746000D01*
X122305624Y-83741525D01*
X122306829Y-83740135D01*
X122308500Y-83732452D01*
X122308500Y-83727885D01*
X122816500Y-83727885D01*
X122820975Y-83743124D01*
X122822365Y-83744329D01*
X122830048Y-83746000D01*
X123714884Y-83746000D01*
X123730123Y-83741525D01*
X123731328Y-83740135D01*
X123732999Y-83732452D01*
X123732999Y-82852905D01*
X123732662Y-82846386D01*
X123722743Y-82750794D01*
X123719851Y-82737400D01*
X123668412Y-82583216D01*
X123662239Y-82570038D01*
X123576937Y-82432193D01*
X123567901Y-82420792D01*
X123453171Y-82306261D01*
X123441760Y-82297249D01*
X123303757Y-82212184D01*
X123290576Y-82206037D01*
X123136290Y-82154862D01*
X123122914Y-82151995D01*
X123028562Y-82142328D01*
X123022145Y-82142000D01*
X122834615Y-82142000D01*
X122819376Y-82146475D01*
X122818171Y-82147865D01*
X122816500Y-82155548D01*
X122816500Y-83727885D01*
X122308500Y-83727885D01*
X122308500Y-82160116D01*
X122304025Y-82144877D01*
X122302635Y-82143672D01*
X122294952Y-82142001D01*
X122102905Y-82142001D01*
X122096386Y-82142338D01*
X122000794Y-82152257D01*
X121987400Y-82155149D01*
X121833216Y-82206588D01*
X121820038Y-82212761D01*
X121682193Y-82298063D01*
X121670792Y-82307099D01*
X121556261Y-82421829D01*
X121547249Y-82433240D01*
X121462184Y-82571243D01*
X121456037Y-82584424D01*
X121404862Y-82738710D01*
X121401995Y-82752086D01*
X121392328Y-82846438D01*
X121392000Y-82852855D01*
X121392000Y-83727885D01*
X120608500Y-83727885D01*
X120608500Y-82849600D01*
X120605089Y-82816724D01*
X120598238Y-82750692D01*
X120598237Y-82750688D01*
X120597526Y-82743834D01*
X120575275Y-82677138D01*
X120543868Y-82583002D01*
X120541550Y-82576054D01*
X120448478Y-82425652D01*
X120323303Y-82300695D01*
X120211334Y-82231676D01*
X120178968Y-82211725D01*
X120178966Y-82211724D01*
X120172738Y-82207885D01*
X120084663Y-82178672D01*
X120011389Y-82154368D01*
X120011387Y-82154368D01*
X120004861Y-82152203D01*
X119998025Y-82151503D01*
X119998022Y-82151502D01*
X119954969Y-82147091D01*
X119900400Y-82141500D01*
X118974600Y-82141500D01*
X118971354Y-82141837D01*
X118971350Y-82141837D01*
X118875692Y-82151762D01*
X118875688Y-82151763D01*
X118868834Y-82152474D01*
X118862298Y-82154655D01*
X118862296Y-82154655D01*
X118777741Y-82182865D01*
X118701054Y-82208450D01*
X118550652Y-82301522D01*
X118425695Y-82426697D01*
X118421855Y-82432927D01*
X118421854Y-82432928D01*
X118338967Y-82567396D01*
X118332885Y-82577262D01*
X118277203Y-82745139D01*
X118276503Y-82751975D01*
X118276502Y-82751978D01*
X118274032Y-82776085D01*
X118266500Y-82849600D01*
X118266500Y-83433629D01*
X118246498Y-83501750D01*
X118229595Y-83522724D01*
X116682296Y-85070023D01*
X116619984Y-85104049D01*
X116571105Y-85104975D01*
X116503284Y-85092894D01*
X116429452Y-85091992D01*
X116285081Y-85090228D01*
X116285079Y-85090228D01*
X116279911Y-85090165D01*
X116059091Y-85123955D01*
X115846756Y-85193357D01*
X115648607Y-85296507D01*
X115644474Y-85299610D01*
X115644471Y-85299612D01*
X115474100Y-85427530D01*
X115469965Y-85430635D01*
X115420641Y-85482249D01*
X115332630Y-85574348D01*
X115315629Y-85592138D01*
X115312715Y-85596410D01*
X115312714Y-85596411D01*
X115246052Y-85694134D01*
X115189743Y-85776680D01*
X115095688Y-85979305D01*
X115035989Y-86194570D01*
X115012251Y-86416695D01*
X115012548Y-86421848D01*
X115012548Y-86421851D01*
X115020399Y-86558007D01*
X115025110Y-86639715D01*
X115026247Y-86644761D01*
X115026248Y-86644767D01*
X115043541Y-86721498D01*
X115074222Y-86857639D01*
X115114346Y-86956453D01*
X115151357Y-87047600D01*
X115158266Y-87064616D01*
X115274987Y-87255088D01*
X115421250Y-87423938D01*
X115593126Y-87566632D01*
X115786000Y-87679338D01*
X115994692Y-87759030D01*
X115999760Y-87760061D01*
X115999763Y-87760062D01*
X116092690Y-87778968D01*
X116213597Y-87803567D01*
X116218772Y-87803757D01*
X116218774Y-87803757D01*
X116431673Y-87811564D01*
X116431677Y-87811564D01*
X116436837Y-87811753D01*
X116441957Y-87811097D01*
X116441959Y-87811097D01*
X116653288Y-87784025D01*
X116653289Y-87784025D01*
X116658416Y-87783368D01*
X116673082Y-87778968D01*
X116867429Y-87720661D01*
X116867434Y-87720659D01*
X116872384Y-87719174D01*
X117072994Y-87620896D01*
X117254860Y-87491173D01*
X117268179Y-87477901D01*
X117336209Y-87410107D01*
X117413096Y-87333489D01*
X117447442Y-87285692D01*
X117540435Y-87156277D01*
X117543453Y-87152077D01*
X117566106Y-87106243D01*
X117640136Y-86956453D01*
X117640137Y-86956451D01*
X117642430Y-86951811D01*
X117678876Y-86831854D01*
X117705865Y-86743023D01*
X117705865Y-86743021D01*
X117707370Y-86738069D01*
X117736529Y-86516590D01*
X117736678Y-86510496D01*
X117738074Y-86453365D01*
X117738074Y-86453361D01*
X117738156Y-86450000D01*
X117720870Y-86239747D01*
X117735223Y-86170219D01*
X117757351Y-86140330D01*
X118285865Y-85611816D01*
X118348177Y-85577790D01*
X118418992Y-85582855D01*
X118463976Y-85611737D01*
X118551697Y-85699305D01*
X118557927Y-85703145D01*
X118557928Y-85703146D01*
X118631616Y-85748568D01*
X118679109Y-85801340D01*
X118691500Y-85855828D01*
X118691500Y-86134631D01*
X118671498Y-86202752D01*
X118631807Y-86241772D01*
X118575652Y-86276522D01*
X118450695Y-86401697D01*
X118446855Y-86407927D01*
X118446854Y-86407928D01*
X118379874Y-86516590D01*
X118357885Y-86552262D01*
X118331436Y-86632005D01*
X118313274Y-86686762D01*
X118302203Y-86720139D01*
X118301503Y-86726975D01*
X118301502Y-86726978D01*
X118299479Y-86746725D01*
X118291500Y-86824600D01*
X118291500Y-87533629D01*
X118271498Y-87601750D01*
X118254595Y-87622724D01*
X117359906Y-88517413D01*
X117297594Y-88551439D01*
X117270811Y-88554318D01*
X115179252Y-88554318D01*
X115160302Y-88552885D01*
X115146067Y-88550719D01*
X115146063Y-88550719D01*
X115138833Y-88549619D01*
X115131541Y-88550212D01*
X115131538Y-88550212D01*
X115086164Y-88553903D01*
X115075949Y-88554318D01*
X115067889Y-88554318D01*
X115064255Y-88554742D01*
X115064249Y-88554742D01*
X115052526Y-88556109D01*
X115039662Y-88557609D01*
X115035314Y-88558039D01*
X114962546Y-88563958D01*
X114955585Y-88566213D01*
X114949645Y-88567400D01*
X114943770Y-88568789D01*
X114936501Y-88569636D01*
X114867852Y-88594554D01*
X114863724Y-88595971D01*
X114801246Y-88616211D01*
X114801244Y-88616212D01*
X114794283Y-88618467D01*
X114788028Y-88622263D01*
X114782554Y-88624769D01*
X114777124Y-88627488D01*
X114770245Y-88629985D01*
X114764125Y-88633998D01*
X114764124Y-88633998D01*
X114709206Y-88670004D01*
X114705502Y-88672341D01*
X114643075Y-88710223D01*
X114634698Y-88717621D01*
X114634674Y-88717594D01*
X114631682Y-88720247D01*
X114628449Y-88722950D01*
X114622330Y-88726962D01*
X114592483Y-88758469D01*
X114569054Y-88783201D01*
X114566676Y-88785643D01*
X114372724Y-88979595D01*
X114310412Y-89013621D01*
X114283629Y-89016500D01*
X113051866Y-89016500D01*
X112989684Y-89023255D01*
X112853295Y-89074385D01*
X112736739Y-89161739D01*
X112649385Y-89278295D01*
X112598255Y-89414684D01*
X112591500Y-89476866D01*
X112591500Y-91373134D01*
X112598255Y-91435316D01*
X112649385Y-91571705D01*
X112736739Y-91688261D01*
X112853295Y-91775615D01*
X112861704Y-91778767D01*
X112861705Y-91778768D01*
X112921164Y-91801058D01*
X112977929Y-91843699D01*
X113002629Y-91910261D01*
X112987422Y-91979609D01*
X112968029Y-92006091D01*
X112901639Y-92075564D01*
X112898725Y-92079836D01*
X112898724Y-92079837D01*
X112883152Y-92102665D01*
X112771119Y-92266899D01*
X112673602Y-92476981D01*
X112611707Y-92700169D01*
X112587095Y-92930469D01*
X110333500Y-92930469D01*
X110333500Y-80534500D01*
X110353502Y-80466379D01*
X110407158Y-80419886D01*
X110459500Y-80408500D01*
X165065500Y-80408500D01*
X165133621Y-80428502D01*
G37*
G04 #@! TD.AperFunction*
M02*
